<svg width="35" height="35" viewBox="0 0 35 35" fill="none" xmlns="http://www.w3.org/2000/svg">
<rect width="35.004" height="35.004" rx="2" fill="#4B0082"/>
<g clip-path="url(#clip0_1_9596)">
<path d="M18.0188 8.02995C11.9288 7.59995 6.89883 12.6299 7.32883 18.7199C7.68883 24.0099 12.3088 27.9999 17.6088 27.9999H21.2988C21.8488 27.9999 22.2988 27.5499 22.2988 26.9999C22.2988 26.4499 21.8488 25.9999 21.2988 25.9999H17.6288C13.8988 25.9999 10.4788 23.5799 9.54883 19.9699C8.05883 14.1699 13.4588 8.75995 19.2588 10.2599C22.8788 11.1799 25.2988 14.5999 25.2988 18.3299V19.4299C25.2988 20.2199 24.5888 20.9999 23.7988 20.9999C23.0088 20.9999 22.2988 20.2199 22.2988 19.4299V18.1799C22.2988 15.6699 20.5188 13.4099 18.0388 13.0599C14.6388 12.5699 11.7688 15.5099 12.3788 18.9299C12.7188 20.8399 14.2088 22.4199 16.0988 22.8699C17.9388 23.2999 19.6888 22.7099 20.8388 21.5399C21.7288 22.7599 23.5088 23.3999 25.1388 22.7499C26.4788 22.2199 27.2988 20.8499 27.2988 19.4099V18.3199C27.2988 13.0099 23.3088 8.38995 18.0188 8.02995ZM17.2988 20.9999C15.6388 20.9999 14.2988 19.6599 14.2988 17.9999C14.2988 16.3399 15.6388 14.9999 17.2988 14.9999C18.9588 14.9999 20.2988 16.3399 20.2988 17.9999C20.2988 19.6599 18.9588 20.9999 17.2988 20.9999Z" fill="white"/>
</g>
<defs>
<clipPath id="clip0_1_9596">
<rect width="24" height="24" fill="white" transform="translate(5.29883 6)"/>
</clipPath>
</defs>
</svg>
