<svg width="65" height="65" viewBox="0 0 65 65" fill="none" xmlns="http://www.w3.org/2000/svg">
<path d="M4.27632 0C3.18802 0 2.09679 0.327338 1.28289 1.0404C0.469002 1.75345 0 2.83834 0 3.96341V5.54878C0 6.67386 0.468999 7.73397 1.28289 8.44703C2.09679 9.16009 3.18802 9.5122 4.27632 9.5122H9.4079C10.4962 9.5122 11.5874 9.16009 12.4013 8.44703C13.0235 7.90189 13.4404 7.16624 13.604 6.34146H15.2076L17.3458 10.3049H15.3947C13.3478 10.3049 11.7641 11.7168 11.2788 13.4756H6.84211C6.78869 13.4733 6.73516 13.4733 6.68174 13.4756C5.78599 13.5144 5.00907 14.3051 5.05106 15.1353C5.09304 15.9655 5.94637 16.6854 6.84211 16.6463H11.2788C11.7641 18.411 13.3478 19.8171 15.3947 19.8171H17.3458C15.7369 22.3543 14.5395 25.2353 14.5395 28.5366V30.9146C14.5395 36.3778 16.705 43.41 21.6488 50.7565C22.0396 51.326 22.8518 51.6143 23.5531 51.4325C24.2543 51.2507 24.7873 50.6138 24.8026 49.939V45.9756C24.8026 42.435 27.8246 39.6341 31.6447 39.6341H33.3553C37.1754 39.6341 40.1974 42.435 40.1974 45.9756V49.939C40.2127 50.6138 40.7457 51.2507 41.4469 51.4325C42.1482 51.6143 42.9604 51.326 43.3512 50.7565C48.295 43.41 50.4605 36.3778 50.4605 30.9146V28.5366C50.4605 25.2353 49.2631 22.3543 47.6542 19.8171H49.6053C51.6522 19.8171 53.2359 18.411 53.7212 16.6463H58.1579C59.0616 16.6582 59.8928 15.8986 59.8928 15.061C59.8928 14.2233 59.0616 13.4638 58.1579 13.4756H53.7212C53.2359 11.7168 51.6522 10.3049 49.6053 10.3049H47.6542L49.7924 6.34146H51.396C51.5596 7.16624 51.9765 7.90189 52.5987 8.44703C53.4126 9.16009 54.5038 9.5122 55.5921 9.5122H60.7237C61.812 9.5122 62.9032 9.16009 63.7171 8.44703C64.531 7.73397 65 6.67386 65 5.54878V3.96341C65 2.83834 64.531 1.75345 63.7171 1.0404C62.9032 0.327338 61.812 0 60.7237 0H55.5921C54.5038 0 53.4126 0.327338 52.5987 1.0404C51.982 1.58067 51.5627 2.34778 51.396 3.17073C50.4689 3.17069 49.5034 3.17073 48.5896 3.17073C48.0172 3.22244 47.4845 3.56129 47.2266 4.03773L43.8322 10.3049H42.3355C40.4784 7.01654 36.7714 4.7561 32.5 4.7561C28.2286 4.7561 24.5216 7.01654 22.6645 10.3049H21.1678L17.7734 4.03773C17.4893 3.51969 16.877 3.17125 16.25 3.17073H13.604C13.4373 2.34778 13.018 1.58067 12.4013 1.0404C11.5874 0.327338 10.4962 0 9.4079 0H4.27632ZM4.27632 3.17073H9.4079C9.74105 3.17073 9.9357 3.24461 10.0493 3.34413C10.163 3.44369 10.2632 3.58286 10.2632 3.96341V5.54878C10.2632 5.92935 10.163 6.04373 10.0493 6.14329C9.9357 6.24285 9.74105 6.34146 9.4079 6.34146H4.27632C3.94316 6.34146 3.74851 6.24285 3.63487 6.14329C3.52123 6.04373 3.42105 5.92935 3.42105 5.54878V3.96341C3.42105 3.58286 3.52123 3.44369 3.63487 3.34413C3.74851 3.24457 3.94316 3.17073 4.27632 3.17073ZM55.5921 3.17073H60.7237C61.0568 3.17073 61.2515 3.24461 61.3651 3.34413C61.4788 3.44369 61.5789 3.58286 61.5789 3.96341V5.54878C61.5789 5.92935 61.4788 6.04373 61.3651 6.14329C61.2515 6.24285 61.0568 6.34146 60.7237 6.34146H55.5921C55.2589 6.34146 55.0643 6.24285 54.9507 6.14329C54.837 6.04373 54.7368 5.92935 54.7368 5.54878V3.96341C54.7368 3.58286 54.837 3.44369 54.9507 3.34413C55.0643 3.24457 55.259 3.17073 55.5921 3.17073ZM32.5 7.92683C36.7714 7.92683 40.1974 11.1021 40.1974 15.061C40.1974 19.0198 36.7714 22.1951 32.5 22.1951C28.2286 22.1951 24.8026 19.0198 24.8026 15.061C24.8026 11.1021 28.2286 7.92683 32.5 7.92683ZM32.5 10.3049C29.6862 10.3049 27.3684 12.453 27.3684 15.061C27.3684 17.6689 29.6862 19.8171 32.5 19.8171C35.3138 19.8171 37.6316 17.6689 37.6316 15.061C37.6316 12.453 35.3138 10.3049 32.5 10.3049ZM15.3947 13.4756H21.5419C21.4549 13.9935 21.3816 14.5209 21.3816 15.061C21.3816 15.601 21.4549 16.1284 21.5419 16.6463H20.7401C20.6256 16.6272 20.509 16.6188 20.3927 16.6216C20.3388 16.6274 20.2853 16.6357 20.2323 16.6463H15.3947C15.0225 16.6463 14.5395 16.268 14.5395 15.5069V14.5903C14.5395 13.8292 15.0225 13.4756 15.3947 13.4756ZM32.5 13.4756C33.465 13.4756 34.2105 14.1666 34.2105 15.061C34.2105 15.9553 33.465 16.6463 32.5 16.6463C31.535 16.6463 30.7895 15.9553 30.7895 15.061C30.7895 14.1666 31.535 13.4756 32.5 13.4756ZM43.4581 13.4756H49.6053C49.9775 13.4756 50.4605 13.8292 50.4605 14.5903V15.5069C50.4605 16.268 49.9775 16.6463 49.6053 16.6463H43.4581C43.5451 16.1284 43.6184 15.601 43.6184 15.061C43.6184 14.5209 43.5451 13.9935 43.4581 13.4756ZM21.435 19.8171H22.6645C24.5216 23.1054 28.2286 25.3659 32.5 25.3659C36.7714 25.3659 40.4784 23.1054 42.3355 19.8171H43.565C45.5475 22.4779 47.0395 25.3207 47.0395 28.5366V30.9146C47.0395 34.4936 45.8909 39.2019 43.271 44.3159C42.3972 39.8875 38.3806 36.4634 33.3553 36.4634H31.6447C26.6194 36.4634 22.6028 39.8875 21.729 44.3159C19.1091 39.2019 17.9605 34.4936 17.9605 30.9146V28.5366C17.9605 25.3207 19.4525 22.4779 21.435 19.8171ZM38.3265 26.1585C37.4307 26.1973 36.6538 26.988 36.6958 27.8182C36.7378 28.6484 37.5911 29.3684 38.4868 29.3293H42.7632C43.6669 29.3411 44.498 28.5816 44.498 27.7439C44.498 26.9062 43.6669 26.1467 42.7632 26.1585C41.2922 26.1585 39.7844 26.1585 38.3265 26.1585ZM32.5 42.0122C29.6867 42.0122 27.3684 44.1608 27.3684 46.7683V60.2439C27.3684 62.8514 29.6867 65 32.5 65C35.3133 65 37.6316 62.8514 37.6316 60.2439V46.7683C37.6316 44.1608 35.3133 42.0122 32.5 42.0122ZM32.5 45.1829C33.4772 45.1829 34.2105 45.8626 34.2105 46.7683V60.2439C34.2105 61.1496 33.4772 61.8293 32.5 61.8293C31.5228 61.8293 30.7895 61.1496 30.7895 60.2439V46.7683C30.7895 45.8626 31.5228 45.1829 32.5 45.1829Z" fill="black"/>
</svg>
