<svg width="67" height="67" viewBox="0 0 67 67" fill="none" xmlns="http://www.w3.org/2000/svg">
<path d="M66 40.7657C66 43.0143 65.0836 45.1796 63.5008 46.762L46.7562 63.5016C43.4239 66.8328 38.009 66.8328 34.6767 63.5016L3.52003 32.3543C1.68728 30.5221 0.854213 28.0237 1.02083 25.5252L2.52035 10.2014C2.93688 6.12063 6.10253 2.95594 10.1846 2.53953L25.4297 1.04047C27.9289 0.790622 30.5114 1.70672 32.2608 3.53891L63.5008 34.6862C65.0836 36.2685 66 38.5171 66 40.7657ZM2.93688 26.2747C2.93688 28.0237 3.60333 29.6893 4.85293 30.9385L36.0096 62.1691C38.5921 64.7508 42.8408 64.7508 45.4233 62.1691L62.1679 45.4295C64.7504 42.8478 64.7504 38.6004 62.1679 36.0187L31.0112 4.87141C29.595 3.45563 27.6789 2.78938 25.6796 2.95594L10.4345 4.45501C7.26882 4.78813 4.76963 7.28657 4.4364 10.4513L2.93688 25.6918C2.93688 25.8583 2.93688 26.1082 2.93688 26.2747Z" fill="black" stroke="black" stroke-width="1.5"/>
<path d="M28.8497 21.8234C28.8497 25.7169 25.7017 28.782 21.8083 28.782C17.9148 28.782 14.8497 25.6341 14.8497 21.7406C14.8497 17.8471 17.9976 14.782 21.8911 14.782C23.7136 14.782 25.5361 15.5275 26.7787 16.853C28.1041 18.1784 28.8497 20.0009 28.8497 21.8234ZM16.755 21.8234C16.755 24.64 19.0745 26.9595 21.8911 26.9595C24.7077 26.9595 27.0272 24.64 27.0272 21.8234C27.0272 20.498 26.5301 19.1725 25.5361 18.1784C23.5479 16.1903 20.3171 16.1903 18.329 18.1784C17.252 19.1725 16.755 20.498 16.755 21.8234Z" fill="black" stroke="black" stroke-width="1.5"/>
</svg>
