<svg width="65" height="65" viewBox="0 0 65 65" fill="none" xmlns="http://www.w3.org/2000/svg">
<path d="M62.1102 24.4455L62.1174 24.4554L62.1252 24.465C63.6273 26.3218 64.4863 28.9002 64.5 31.6211C64.5 31.6216 64.5 31.6221 64.5 31.6226L64.5 57.5287C64.4866 61.5091 62.0024 64.5 59.1945 64.5H55.5278C52.7201 64.5 50.2361 61.5097 50.2222 57.5298C50.2222 57.5294 50.2222 57.5291 50.2222 57.5287L50.2222 53.8674V53.3674H49.7222H15.2778H14.7778V53.8674V57.5295C14.764 61.5096 12.2799 64.5 9.47222 64.5H5.80556C2.99783 64.5 0.513729 61.5095 0.5 57.5295V32.2845C0.5 29.3736 1.49322 26.6263 3.17567 24.774L3.18257 24.7664L3.18915 24.7586L5.23082 22.3166L5.29872 22.2353L5.32788 22.1336L10.2303 5.02301C10.2303 5.02283 10.2304 5.02266 10.2304 5.02249C11.0376 2.23478 13.056 0.5 15.1806 0.5H50.6925C52.8217 0.516783 54.8387 2.23899 55.6446 5.02275C55.6447 5.02283 55.6447 5.02292 55.6447 5.02301L60.6166 22.3492L60.6411 22.4346L60.6935 22.5063L62.1102 24.4455ZM11.881 5.96518L11.8806 5.96691L7.54722 21.0498L7.3639 21.6878H8.02778H35.7778H36.2241L36.2746 21.2444C36.8698 16.015 40.0298 12.0367 43.899 11.3006L43.9003 11.3003C48.7042 10.3729 53.3818 14.6651 54.1282 21.2442L54.1785 21.6878H54.625H57.8611H58.525L58.3417 21.0498L54.0084 5.9669L54.0074 5.96365C53.5218 4.31557 52.2477 3.09116 50.7083 3.09116H15.1806C13.6435 3.09116 12.3675 4.29485 11.881 5.96518ZM51.7917 21.6878H52.3802L52.2851 21.1071C51.7081 17.5825 49.5692 14.7392 46.7159 13.9544L46.7138 13.9538C42.6596 12.8577 38.8796 16.2249 38.0897 21.108L37.996 21.6878H38.5833H51.7917ZM13 57.5336V57.5304V53.8674V53.3674H12.5H5.80556C4.80689 53.3674 3.82906 53.0563 3.09945 52.4432L2.27778 51.7527V52.826L2.27777 57.5304L2.27779 57.5336C2.29264 59.838 3.75372 61.9088 5.80556 61.9088H9.47222C11.5241 61.9088 12.9851 59.838 13 57.5336ZM62.7222 57.5336V57.5304V52.826V51.7527L61.9006 52.4432C61.1709 53.0563 60.1931 53.3674 59.1945 53.3674H52.5H52V53.8674L52 57.5304L52 57.5336C52.0149 59.8184 53.4747 61.9088 55.5278 61.9088H59.1945C61.2463 61.9088 62.7074 59.838 62.7222 57.5336ZM62.7255 45.9337H62.7083V31.6202C62.7083 29.6852 62.0898 27.8068 60.9836 26.4351C60.9678 26.4104 60.9522 26.3901 60.9389 26.3741C60.9276 26.3605 60.917 26.3491 60.9086 26.3402L60.9056 26.3361L59.5723 24.4866L59.4226 24.279H59.1667H6.56944H6.33318L6.18316 24.4615L4.29427 26.7599L4.28958 26.7656L4.28506 26.7714L4.25729 26.8073L4.24191 26.8272C2.98808 28.2065 2.27778 30.2107 2.27778 32.2845L2.27777 46.4337L2.27779 46.4369C2.29265 48.7426 3.7695 50.7964 5.80805 50.7762H59.192C61.2318 50.7964 62.7074 48.723 62.7222 46.437L62.7255 45.9337Z" fill="black" stroke="black"/>
<path d="M18.6154 31.9614H8.03843C7.26279 31.9614 6.62817 32.7694 6.62817 33.757V43.094C6.62817 44.0816 7.26279 44.8896 8.03843 44.8896H18.6154C19.391 44.8896 20.0256 44.0816 20.0256 43.094V33.757C20.0256 32.7694 19.391 31.9614 18.6154 31.9614ZM17.2051 41.2984H9.44869V35.5526H17.2051V41.2984Z" fill="black"/>
<path d="M57.9615 31.9614H47.3846C46.609 31.9614 45.9744 32.7694 45.9744 33.757V43.094C45.9744 44.0816 46.609 44.8896 47.3846 44.8896H57.9615C58.7372 44.8896 59.3718 44.0816 59.3718 43.094V33.757C59.3718 32.7694 58.7372 31.9614 57.9615 31.9614ZM56.5513 41.2984H48.7949V35.5526H56.5513V41.2984Z" fill="black"/>
<path d="M39.8115 39.5027H26.1885C25.4128 39.5027 24.7782 40.3107 24.7782 41.2983C24.7782 42.2858 25.4128 43.0938 26.1885 43.0938H39.8115C40.5872 43.0938 41.2218 42.2858 41.2218 41.2983C41.2218 40.3107 40.5872 39.5027 39.8115 39.5027Z" fill="black"/>
<path d="M39.8115 33.9365H26.1885C25.4128 33.9365 24.7782 34.7445 24.7782 35.7321C24.7782 36.7197 25.4128 37.5277 26.1885 37.5277H39.8115C40.5872 37.5277 41.2218 36.7197 41.2218 35.7321C41.2218 34.7445 40.5872 33.9365 39.8115 33.9365Z" fill="black"/>
</svg>
