<svg width="65" height="65" viewBox="0 0 65 65" fill="none" xmlns="http://www.w3.org/2000/svg">
<path d="M60.2153 40.628C59.9473 39.6267 59.3975 38.7481 58.6473 38.122C57.8972 37.496 56.9863 37.1556 56.0494 37.1513H54.1438C54.1438 34.5823 53.2287 32.1185 51.6 30.302C49.9713 28.4854 47.7622 27.4648 45.4588 27.4648C43.1554 27.4648 40.9464 28.4854 39.3176 30.302C37.6889 32.1185 36.7739 34.5823 36.7739 37.1513H34.8683C33.9313 37.1556 33.0205 37.4959 32.2703 38.122C31.5201 38.748 30.9704 39.6266 30.7023 40.6279L26.1161 58.0194C25.9019 58.8313 25.8605 59.6876 25.9949 60.5205C26.1294 61.3534 26.4361 62.1398 26.8906 62.8174C27.3452 63.495 27.9351 64.045 28.6136 64.4239C29.292 64.8028 30.0404 65.0001 30.7991 65.0001H60.1185C60.8773 65.0001 61.6256 64.8028 62.304 64.424C62.9825 64.0451 63.5724 63.495 64.027 62.8175C64.4816 62.1399 64.7882 61.3535 64.9227 60.5206C65.0572 59.6878 65.0157 58.8314 64.8016 58.0195L60.2153 40.628ZM38.9451 37.1513C38.9451 35.2246 39.6314 33.3767 40.8529 32.0143C42.0745 30.6519 43.7313 29.8865 45.4588 29.8865C47.1864 29.8865 48.8431 30.6519 50.0647 32.0143C51.2863 33.3767 51.9725 35.2246 51.9725 37.1513V46.3364L50.8869 47.5472L49.8013 46.3364V37.1513C49.8013 35.8668 49.3438 34.6349 48.5294 33.7267C47.715 32.8184 46.6105 32.3081 45.4588 32.3081C44.3071 32.3081 43.2026 32.8184 42.3882 33.7267C41.5738 34.6349 41.1163 35.8668 41.1163 37.1513V46.3364L40.0307 47.5472L38.9451 46.3364V37.1513ZM47.63 37.1513H43.2876C43.2876 36.5091 43.5163 35.8931 43.9235 35.439C44.3307 34.9849 44.883 34.7297 45.4588 34.7297C46.0347 34.7297 46.5869 34.9849 46.9941 35.439C47.4013 35.8931 47.63 36.5091 47.63 37.1513ZM60.1185 62.5784H30.7991C30.3778 62.5784 29.9624 62.4689 29.5857 62.2585C29.209 62.0482 28.8815 61.7428 28.6291 61.3666C28.3767 60.9904 28.2065 60.5537 28.1318 60.0913C28.0572 59.6289 28.0802 59.1535 28.199 58.7027L32.7853 41.3112C32.9193 40.8105 33.1942 40.3713 33.5693 40.0583C33.9444 39.7453 34.3998 39.5751 34.8683 39.573H36.7739V46.8379C36.7739 47.159 36.8882 47.467 37.0918 47.6941L39.2631 50.1157C39.4667 50.3427 39.7428 50.4702 40.0307 50.4702C40.3186 50.4702 40.5947 50.3427 40.7984 50.1157L42.9696 47.6941C43.1732 47.467 43.2876 47.159 43.2876 46.8379V39.573H47.63V46.8379C47.6301 47.159 47.7444 47.467 47.948 47.6941L50.1193 50.1157C50.3229 50.3427 50.599 50.4703 50.8869 50.4703C51.1748 50.4703 51.4509 50.3427 51.6545 50.1157L53.8258 47.6941C54.0294 47.467 54.1438 47.159 54.1438 46.8379V39.573H56.0494C56.5178 39.5751 56.9732 39.7453 57.3483 40.0583C57.7234 40.3713 57.9983 40.8105 58.1323 41.3112L62.7186 58.7028C62.8375 59.1536 62.8605 59.629 62.7858 60.0914C62.7112 60.5538 62.5409 60.9905 62.2885 61.3667C62.0361 61.7428 61.7086 62.0482 61.3319 62.2586C60.9552 62.4689 60.5398 62.5784 60.1185 62.5784Z" fill="black"/>
<path d="M13.0259 47.2602L12.4241 50.2737L14.5392 50.7966L15.141 47.7831L13.0259 47.2602Z" fill="black"/>
<path d="M0.189577 64.4759C0.289251 64.6374 0.422951 64.7696 0.579092 64.8609C0.735233 64.9523 0.909105 65 1.08564 65H23.8842V62.5926H12.2098L13.1225 58.0389L11.0029 57.5167L9.98555 62.5926H2.67269L17.0273 21.6667H18.1882L13.6567 44.2759L15.7763 44.7981L20.4125 21.6667H21.7129V42.1296H23.8842V21.6667H25.1846L28.3732 37.5759L30.4928 37.0537L27.4088 21.6667H28.5697L32.9447 34.14L34.9684 33.2675L30.4662 20.4315L34.6849 6.39923C34.7404 6.21462 34.7547 6.01784 34.7266 5.82576C34.6985 5.63367 34.6288 5.45201 34.5235 5.29633L32.2629 1.95455C31.8594 1.35801 31.3381 0.87177 30.739 0.533086C30.1398 0.194402 29.4787 0.0122554 28.8062 0.00059729C28.1338 -0.0110608 27.4679 0.148079 26.8594 0.465827C26.251 0.783576 25.7163 1.2515 25.2962 1.83377L22.7985 5.29545L20.3009 1.83392C19.8808 1.25163 19.346 0.783671 18.7376 0.465896C18.1292 0.148121 17.4633 -0.0110398 16.7908 0.000604177C16.1184 0.0122481 15.4572 0.194388 14.8581 0.533073C14.2589 0.871758 13.7376 1.358 13.3341 1.95456L11.0736 5.29633C10.9683 5.45201 10.8986 5.63368 10.8705 5.82576C10.8423 6.01785 10.8567 6.21463 10.9122 6.39924L15.1308 20.4315L0.0738208 63.36C0.00983812 63.5425 -0.0130601 63.7394 0.00711082 63.9338C0.0272818 64.1283 0.0899132 64.3143 0.189577 64.4759ZM13.1519 6.23614L15.0711 3.39894C15.2758 3.09631 15.5403 2.84964 15.8442 2.67782C16.1482 2.50601 16.4836 2.41362 16.8247 2.40772C17.1659 2.40182 17.5037 2.48257 17.8123 2.64378C18.121 2.805 18.3923 3.04241 18.6054 3.33782L21.9508 7.97425C22.0525 8.11519 22.1815 8.22897 22.3282 8.30715C22.475 8.38534 22.6357 8.42593 22.7985 8.42593C22.9613 8.42593 23.1221 8.38534 23.2688 8.30715C23.4155 8.22897 23.5446 8.11519 23.6463 7.97425L26.9917 3.33782C27.2048 3.04241 27.4761 2.805 27.7847 2.64378C28.0933 2.48257 28.4312 2.40182 28.7723 2.40772C29.1134 2.41362 29.4488 2.50601 29.7528 2.67782C30.0568 2.84964 30.3212 3.09631 30.5259 3.39894L32.4451 6.23614L28.5299 19.2593H17.0672L13.1519 6.23614Z" fill="black"/>
<path d="M23.8607 44.4014H21.8037V59.0493H23.8607V44.4014Z" fill="black"/>
</svg>
