<svg width="67" height="67" viewBox="0 0 67 67" fill="none" xmlns="http://www.w3.org/2000/svg">
<path d="M63.5736 19.8909C63.3727 19.6873 63.0944 19.5715 62.803 19.5715H31.9014C31.61 19.5715 31.3315 19.6873 31.1308 19.8909C30.9294 20.0945 30.8231 20.3694 30.8367 20.6515L31.6064 36.6758C31.6336 37.2442 32.1402 37.6926 32.7204 37.6583C33.3084 37.632 33.7628 37.1484 33.7356 36.5791L33.0178 21.6351H61.6876L59.6553 63.9364H35.7244C35.1359 63.9364 34.6587 64.3979 34.6587 64.9682C34.6587 65.5386 35.1359 66 35.7244 66H60.672C61.2413 66 61.7099 65.5667 61.7366 65.0164L63.8677 20.6515C63.8811 20.3694 63.7751 20.0945 63.5736 19.8909Z" fill="black" stroke="black" stroke-width="0.5"/>
<path d="M43.623 57.7461H5.2624C4.67394 57.7461 4.19678 58.2075 4.19678 58.7779C4.19678 62.7598 7.54287 66.0001 11.6558 66.0001H37.2296C41.3424 66.0001 44.6886 62.7597 44.6886 58.7779C44.6885 58.2075 44.2115 57.7461 43.623 57.7461ZM37.2296 63.9365H11.6558C9.0827 63.9365 6.92975 62.1612 6.4351 59.8095H42.4503C41.9554 62.1612 39.8024 63.9365 37.2296 63.9365Z" fill="black" stroke="black" stroke-width="0.5"/>
<path d="M43.623 51.5554H5.26234C2.91226 51.5554 1 53.4064 1 55.6824C1 57.9585 2.9121 59.8094 5.26234 59.8094H43.623C45.9731 59.8094 47.8853 57.9585 47.8853 55.6824C47.8853 53.4064 45.9731 51.5554 43.623 51.5554ZM43.623 57.7459H5.26234C4.08699 57.7459 3.13125 56.8199 3.13125 55.6824C3.13125 54.545 4.08714 53.619 5.26234 53.619H43.623C44.7983 53.619 45.7541 54.545 45.7541 55.6824C45.7541 56.8199 44.7982 57.7459 43.623 57.7459Z" fill="black" stroke="black" stroke-width="0.5"/>
<path d="M46.8193 31.9524C41.9576 31.9524 37.7148 35.1326 36.5013 39.6846C36.354 40.2368 36.6969 40.7989 37.2666 40.942C37.8378 41.0831 38.4175 40.7526 38.5648 40.2004C39.5351 36.5588 42.9294 34.0158 46.8193 34.0158C51.5198 34.0158 55.3439 37.7185 55.3439 42.2697C55.3439 46.8209 51.5198 50.5236 46.8193 50.5236C45.8417 50.5236 44.8843 50.3655 43.9743 50.0531C43.4202 49.8648 42.8105 50.1439 42.6143 50.6809C42.4176 51.2179 42.7081 51.8073 43.2627 51.9977C44.4018 52.3886 45.5984 52.5872 46.8195 52.5872C52.6953 52.5872 57.475 47.9585 57.475 42.2697C57.475 36.5809 52.6952 31.9524 46.8193 31.9524Z" fill="black" stroke="black" stroke-width="0.5"/>
<path d="M26.5738 35.0476H22.3115C12.3228 35.0476 4.19678 42.9156 4.19678 52.5871C4.19678 53.1574 4.67394 53.6189 5.2624 53.6189H43.623C44.2115 53.6189 44.6886 53.1575 44.6886 52.5871C44.6885 42.9158 36.5625 35.0476 26.5738 35.0476ZM6.3633 51.5555C6.91368 43.501 13.8561 37.1112 22.3115 37.1112H26.5738C35.0292 37.1112 41.9716 43.501 42.522 51.5555H6.3633Z" fill="black" stroke="black" stroke-width="0.5"/>
<path d="M14.8862 41.238H14.8186C14.2488 41.238 13.7869 41.7 13.7869 42.2698C13.7869 42.8396 14.2488 43.3015 14.8186 43.3015H14.8862C15.456 43.3015 15.918 42.8396 15.918 42.2698C15.918 41.7 15.456 41.238 14.8862 41.238Z" fill="black" stroke="black" stroke-width="0.5"/>
<path d="M13.8207 45.3647H13.753C13.1832 45.3647 12.7213 45.8267 12.7213 46.3965C12.7213 46.9663 13.1832 47.4282 13.753 47.4282H13.8207C14.3905 47.4282 14.8524 46.9663 14.8524 46.3965C14.8524 45.8267 14.3905 45.3647 13.8207 45.3647Z" fill="black" stroke="black" stroke-width="0.5"/>
<path d="M26.6073 40.2061H26.5396C25.9698 40.2061 25.5079 40.668 25.5079 41.2378C25.5079 41.8076 25.9698 42.2695 26.5397 42.2695H26.6073C27.1771 42.2695 27.639 41.8076 27.639 41.2378C27.639 40.668 27.1771 40.2061 26.6073 40.2061Z" fill="black" stroke="black" stroke-width="0.5"/>
<path d="M33.001 45.3647H32.9333C32.3635 45.3647 31.9016 45.8267 31.9016 46.3965C31.9016 46.9663 32.3635 47.4282 32.9333 47.4282H33.001C33.5708 47.4282 34.0327 46.9663 34.0327 46.3965C34.0327 45.8267 33.5708 45.3647 33.001 45.3647Z" fill="black" stroke="black" stroke-width="0.5"/>
<path d="M23.4108 46.3965H23.3431C22.7733 46.3965 22.3114 46.8584 22.3114 47.4282C22.3114 47.998 22.7733 48.4599 23.3431 48.4599H23.4108C23.9806 48.4599 24.4425 47.998 24.4425 47.4282C24.4425 46.8584 23.9806 46.3965 23.4108 46.3965Z" fill="black" stroke="black" stroke-width="0.5"/>
<path d="M64.9343 15.4446H28.7048C28.1163 15.4446 27.6392 15.906 27.6392 16.4764V20.6034C27.6392 21.1736 28.1163 21.6352 28.7048 21.6352H64.9343C65.5228 21.6352 65.9999 21.1738 65.9999 20.6034V16.4764C65.9999 15.906 65.5228 15.4446 64.9343 15.4446ZM63.8687 19.5714H29.7704V17.508H63.8687V19.5714Z" fill="black" stroke="black" stroke-width="0.5"/>
<path d="M37.2062 16.2597L34.0094 1.8154C33.8861 1.25922 33.3206 0.902549 32.744 1.02361C32.1687 1.14255 31.8019 1.69162 31.9252 2.24885L35.1219 16.6932C35.229 17.1768 35.6712 17.5082 36.163 17.5082C36.2368 17.5082 36.3124 17.501 36.3873 17.485C36.9628 17.366 37.3296 16.8168 37.2062 16.2597Z" fill="black" stroke="black" stroke-width="0.5"/>
</svg>
