<svg width="65" height="65" viewBox="0 0 65 65" fill="none" xmlns="http://www.w3.org/2000/svg">
<path d="M39.2929 14.0706H27.7195C26.7557 14.0706 25.9513 14.8191 25.867 15.7944L24.8543 27.5472C24.8087 28.0749 24.9836 28.5972 25.3357 28.9877C25.6883 29.3782 26.1857 29.6 26.7073 29.6H38.2807C39.245 29.6 40.0494 28.8519 40.1337 27.8762L41.1459 16.1239C41.1915 15.5962 41.0166 15.0739 40.6645 14.6834C40.3119 14.2929 39.8145 14.0706 39.2929 14.0706ZM36.5764 25.8234H28.7366L29.4239 17.8477H37.2636L36.5764 25.8234Z" fill="black"/>
<path d="M57.7066 28.3555C59.5043 28.3555 61.2469 27.6419 62.6137 26.3466C63.9784 25.0533 64.8165 23.3225 64.9732 21.4741C65.1359 19.5562 64.5537 17.7441 63.3337 16.3717C62.1178 15.0038 60.4262 14.2508 58.5665 14.2508H51.7612L52.3572 7.22381C52.5204 5.3054 51.9382 3.49332 50.7178 2.12083C49.5023 0.75346 47.8107 0 45.955 0C44.1574 0 42.4147 0.713589 41.048 2.00889C39.6833 3.30214 38.8452 5.03244 38.6885 6.88133L38.0626 14.2508H30.0353L30.6319 7.2233C30.7946 5.3054 30.2124 3.49332 28.9924 2.12032C27.7764 0.752949 26.0849 0 24.2292 0C22.4315 0 20.6889 0.713078 19.3222 2.00838C17.9574 3.30214 17.1198 5.03244 16.9626 6.88133L16.3373 14.2503H9.19418C7.39651 14.2503 5.65388 14.9639 4.28715 16.2592C2.9224 17.553 2.08431 19.2833 1.92761 21.1322C1.76495 23.0501 2.34764 24.8627 3.56758 26.2351C4.78356 27.6025 6.47461 28.3555 8.33031 28.3555H15.1397L14.436 36.6451H7.29336C5.49568 36.6451 3.75305 37.3581 2.38632 38.6534C1.02158 39.9472 0.183985 41.6775 0.0267809 43.5259C-0.135878 45.4443 0.446321 47.2564 1.66676 48.6289C2.88223 49.9962 4.57379 50.7492 6.42948 50.7492H13.2393L12.6427 57.7767C12.4801 59.6946 13.0623 61.5067 14.2827 62.8797C15.4982 64.2471 17.1898 65 19.0454 65C20.8431 65 22.5858 64.2869 23.952 62.9916C25.3172 61.6979 26.1553 59.9676 26.312 58.1192C26.313 58.1095 26.314 58.0998 26.3145 58.09L26.9374 50.7492L34.9647 50.7497L34.3686 57.7762C34.2054 59.6946 34.7881 61.5067 36.0081 62.8792C37.2235 64.2471 38.9151 65 40.7708 65C42.5685 65 44.3111 64.2869 45.6778 62.9916C47.0426 61.6979 47.8807 59.9676 48.0379 58.1187C48.0384 58.113 48.0389 58.1069 48.0394 58.1008L48.6632 50.7497H55.8063C55.8212 50.7497 55.8361 50.7497 55.8509 50.7492C57.6327 50.7374 59.358 50.0254 60.7133 48.7408C62.0781 47.447 62.9162 45.7167 63.0729 43.8684C63.2355 41.9505 62.6533 40.1384 61.4329 38.7654C60.2174 37.398 58.5259 36.6451 56.6662 36.6451H49.8603L50.564 28.3555H57.7066ZM46.3776 39.9339C46.7386 40.3398 47.2479 40.5708 47.782 40.5708H56.6697C57.4448 40.5708 58.1391 40.8714 58.6251 41.4178C59.115 41.9694 59.3471 42.7177 59.2787 43.5259C59.1269 45.3134 57.5365 46.8234 55.8058 46.8234C55.7934 46.8234 55.781 46.8239 55.7681 46.8239H46.9181C45.9307 46.8239 45.107 47.6019 45.0212 48.6156L44.2437 57.7726C44.2437 57.7782 44.2432 57.7833 44.2427 57.7885C44.0845 59.5709 42.4976 61.0742 40.7708 61.0742C39.9957 61.0742 39.3014 60.7737 38.8159 60.2272C38.326 59.6757 38.0934 58.9268 38.1623 58.1187L38.9399 48.958C38.9865 48.4096 38.8075 47.8667 38.447 47.4608C38.0859 47.055 37.5766 46.8239 37.0425 46.8239L25.1923 46.8234C24.2049 46.8234 23.3812 47.6014 23.2954 48.6156L22.5183 57.7726C22.5173 57.7808 22.5168 57.7885 22.5163 57.7961C22.3547 59.575 20.7692 61.0747 19.0454 61.0747C18.2703 61.0747 17.5761 60.7737 17.0901 60.2272C16.6001 59.6762 16.368 58.9273 16.437 58.1187L17.2145 48.9575C17.2612 48.4096 17.0821 47.8662 16.7216 47.4603C16.3606 47.055 15.8513 46.8239 15.3172 46.8239H6.42948C5.65437 46.8239 4.9601 46.5228 4.4746 45.9769C3.98464 45.4254 3.75206 44.6765 3.82099 43.8684C3.97274 42.0808 5.56263 40.5708 7.29336 40.5708H16.1811C17.1684 40.5708 17.9921 39.7928 18.0779 38.7792L19.1149 26.5638C19.1615 26.0158 18.9825 25.4725 18.6219 25.0666C18.2614 24.6613 17.7516 24.4302 17.218 24.4302H8.33031C7.5552 24.4302 6.86092 24.1291 6.37543 23.5832C5.88547 23.0317 5.65289 22.2828 5.72182 21.4746C5.87357 19.6866 7.46395 18.1766 9.19418 18.1766H18.0819C19.0693 18.1766 19.893 17.3986 19.9788 16.3849L20.7568 7.22381C20.9086 5.43626 22.4985 3.92627 24.2292 3.92627C25.0043 3.92627 25.6986 4.22684 26.1841 4.77328C26.674 5.32432 26.9066 6.07318 26.8377 6.88133L26.0601 16.0425C26.0135 16.5909 26.1925 17.1343 26.553 17.5397C26.9136 17.9455 27.4234 18.1766 27.957 18.1766H39.8072C40.7946 18.1766 41.6183 17.3986 41.7046 16.3849L42.4822 7.22381C42.6339 5.43626 44.2243 3.92627 45.955 3.92627C46.7297 3.92627 47.4244 4.22684 47.9099 4.77328C48.3999 5.32432 48.632 6.07318 48.5635 6.88133L47.7859 16.0425C47.7393 16.5909 47.9184 17.1338 48.2789 17.5397C48.6394 17.9455 49.1487 18.1766 49.6828 18.1766H58.571C59.3456 18.1766 60.0399 18.4777 60.5254 19.0236C61.0158 19.5751 61.2479 20.324 61.179 21.1322C61.0277 22.9202 59.4374 24.4302 57.7066 24.4302H48.8184C47.8316 24.4302 47.0079 25.2082 46.9216 26.2218L45.8846 38.4372C45.838 38.9852 46.017 39.528 46.3776 39.9339Z" fill="black"/>
</svg>
