<svg width="48" height="65" viewBox="0 0 48 65" fill="none" xmlns="http://www.w3.org/2000/svg">
<path d="M40.8457 64.7272C40.8457 64.5752 40.9282 64.1131 41.0291 63.7003C41.3182 62.5175 41.4668 61.3985 41.4662 60.4091C41.4654 59.428 41.4112 59.2115 41.0192 58.6299C40.684 58.1328 40.4695 57.5646 40.3777 56.9314C40.3324 56.6183 40.2253 56.1529 40.1397 55.8972C40.0542 55.6413 39.9388 55.2055 39.8832 54.9284C39.8276 54.6513 39.5863 53.727 39.3468 52.8745C39.1073 52.022 38.8826 51.2199 38.8475 51.0921C38.7921 50.8905 38.752 50.8626 38.5467 50.8825C38.2845 50.9076 38.2526 50.8574 38.0172 50.0458C37.7127 48.9957 37.4484 45.4863 37.4189 42.1019C37.3944 39.2803 37.6759 36.7745 38.2141 35.0222C38.2973 34.7517 38.3446 34.4967 38.3193 34.4558C38.2628 34.3644 37.9151 34.4356 37.4786 34.6291C37.298 34.709 36.9703 34.813 36.7504 34.8601C36.5305 34.9068 36.3456 34.9865 36.3395 35.0363C36.3335 35.0864 36.3381 35.805 36.3488 36.634C36.3654 37.8548 36.3946 38.201 36.5029 38.4553C36.6205 38.7319 36.6424 39.2119 36.6858 42.4783C36.7347 46.1518 36.7336 46.1912 36.5689 46.586C36.4774 46.8052 36.2703 47.1763 36.1086 47.4108C35.9469 47.6452 35.6218 48.1177 35.3861 48.4608C35.1504 48.804 34.6782 49.4143 34.3366 49.817C33.7017 50.566 33.0082 51.7652 32.9046 52.2933C32.8147 52.7521 32.7788 52.8358 32.6723 52.8358C32.1384 52.8358 32.952 50.9367 34.0357 49.6535C34.3755 49.2512 34.8143 48.6778 35.0109 48.3795C35.2075 48.0812 35.487 47.6975 35.632 47.527C35.777 47.3565 35.998 47.0028 36.1231 46.7409L36.3506 46.2648V43.1306C36.3506 41.4068 36.3276 39.9735 36.2995 39.9455C36.2715 39.9169 36.2003 39.9343 36.1413 39.9838C35.8963 40.1871 35.8596 39.9468 35.9538 38.7515C36.0108 38.0283 36.0249 37.0354 35.9917 36.0778L35.939 34.5545H36.3266C36.5803 34.5545 36.9125 34.4785 37.288 34.3289C37.6036 34.2031 37.9903 34.0766 38.1474 34.0477C38.5226 33.9781 39.2874 33.4056 39.5137 33.0239C40.1629 31.9288 40.3478 31.5936 40.6739 30.9194L41.0394 30.164L41.0954 28.1489C41.1262 27.0407 41.1722 25.7518 41.1976 25.2848C41.2386 24.5293 41.2267 24.4054 41.0897 24.161C40.8614 23.7539 40.4056 22.4798 40.3011 21.9564C40.2269 21.585 40.1436 21.4282 39.8583 21.1232L39.5069 20.7475H38.4771C37.4941 20.7475 37.4371 20.7562 37.219 20.9397C37.0934 21.0454 36.9444 21.246 36.8879 21.3853C36.8314 21.5247 36.5842 21.9178 36.3386 22.2588C35.7396 23.0903 35.7287 23.1018 35.6305 23.0036C35.5195 22.8926 35.6521 22.6162 36.118 21.9876C36.3234 21.7105 36.5495 21.3385 36.6205 21.1609C36.6995 20.9634 36.8617 20.7604 37.0384 20.6379C37.3031 20.4545 37.4141 20.434 38.3695 20.3924C39.5734 20.34 39.6795 20.3749 40.2111 20.9973C40.446 21.2722 40.5456 21.4746 40.6116 21.811C40.66 22.0573 40.7649 22.4332 40.8448 22.6463C40.9247 22.8595 41.0122 23.1123 41.0393 23.2082C41.0664 23.3041 41.1211 23.3826 41.1608 23.3826C41.2541 23.3826 41.2541 23.1016 41.1608 22.9273C41.121 22.853 41.0363 22.4978 40.9725 22.138C40.8115 21.2304 40.444 20.516 39.8486 19.9532L39.3771 19.5075H38.1647H36.9522L36.4727 19.9966C36.1994 20.2752 35.848 20.7503 35.6557 21.101C35.4113 21.5466 35.0508 21.9995 34.3486 22.743C33.8154 23.3077 33.228 23.9703 33.0433 24.2155C32.7418 24.6159 32.1135 25.8033 31.9791 26.2268C31.9504 26.317 31.8758 26.4105 31.8131 26.4346C31.68 26.4857 29.5746 26.3641 29.4697 26.2993C29.4306 26.2751 29.4142 25.9145 29.4332 25.4971C29.4755 24.5655 29.3229 23.5724 28.9643 22.4437C28.7395 21.7363 28.6099 21.4869 28.0383 20.6612C27.3238 19.629 26.0951 18.3377 25.1903 17.6681L24.6866 17.2953L24.6659 15.1812L24.6453 13.0671L24.1622 12.8386C23.8965 12.7129 23.5919 12.6092 23.4853 12.6082C23.0785 12.6048 22.374 12.1828 21.664 11.5181C21.2342 11.1158 20.8225 10.9218 20.1083 10.7851L19.4965 10.668L16.899 11.2979L14.3014 11.9278L13.5264 12.4C11.6506 13.5428 10.6555 14.0824 10.4235 14.0824C10.2929 14.0824 10.1529 14.1152 10.1124 14.1552C9.94 14.3256 8.71714 14.6407 7.67501 14.7832C7.05694 14.8677 6.43405 14.9753 6.29081 15.0222C5.94274 15.1364 4.72644 16.2372 4.43919 16.6981C4.17202 17.1268 3.71621 18.3225 3.54923 19.0327C3.46145 19.406 3.45348 19.5806 3.51653 19.7477C3.59019 19.943 3.57493 19.995 3.38576 20.1924C3.21781 20.3677 3.18271 20.4605 3.22325 20.622C3.2517 20.7354 3.23889 20.9233 3.19487 21.0397C3.15085 21.1561 3.09348 21.902 3.06743 22.6973L3.02005 24.1434L3.21119 24.3636L3.40233 24.5839L4.66676 23.3375C5.91173 22.1103 5.94072 22.0878 6.55119 21.8725C6.8922 21.7522 7.33817 21.5707 7.54224 21.4691C8.13277 21.1753 8.20204 21.328 7.82078 22.0833C7.61 22.5008 7.58467 22.6162 7.62277 22.9854C7.64817 23.2312 7.63089 23.4763 7.58165 23.57C7.41984 23.8777 6.13103 25.374 5.78013 25.6615C5.1441 26.1827 5.36243 26.4955 6.58998 26.8217C7.44005 27.0476 8.27992 27.4505 8.96548 27.9612C9.54264 28.3912 9.6406 28.6927 9.59839 29.9092C9.57724 30.518 9.52495 30.9453 9.45331 31.094C9.36189 31.2837 9.10597 31.4439 8.0625 31.9645L6.78373 32.6025H6.16372C5.56412 32.6025 5.52713 32.5928 5.03995 32.2739L4.53619 31.9443L4.51258 31.5331C4.49321 31.1954 4.46551 31.1264 4.35758 31.1469C4.28042 31.1615 4.18234 31.3101 4.11999 31.5067C4.02823 31.7962 4.0299 31.8908 4.13221 32.2036C4.20814 32.4356 4.28796 32.5543 4.35464 32.5345C4.93236 32.3626 5.09825 32.5122 4.65517 32.8053C4.36097 33.0001 4.25273 33.2372 4.4129 33.3361C4.45171 33.3598 4.64831 33.3096 4.84985 33.2227C5.21106 33.0678 5.54034 33.0793 5.4852 33.2443C5.45429 33.337 5.38653 33.3764 4.92366 33.5707C4.59812 33.7074 4.2649 34.1251 4.2649 34.3965C4.2649 34.4814 4.14384 34.8017 3.99588 35.1081C3.67427 35.7741 3.41238 37.1095 3.41238 38.0835C3.41238 38.7944 3.45633 38.929 4.19801 40.4913C4.41512 40.9486 4.67442 41.4971 4.77423 41.7102C4.87404 41.9234 5.1489 42.4291 5.38504 42.8341C5.62117 43.2389 5.89648 43.746 5.99686 43.9607C6.20437 44.4046 6.80554 45.2703 7.42115 46.0116C7.65125 46.2887 8.11527 46.8467 8.45231 47.2516C9.37959 48.3657 10.2398 49.4971 10.4556 49.8867C10.5619 50.0785 10.7256 50.3401 10.8194 50.4679C11.2493 51.0544 11.3006 51.2588 11.3874 52.7327C11.449 53.7782 11.508 54.2334 11.6177 54.5118C11.8744 55.163 12.2428 55.8781 12.4176 56.0641C12.7122 56.3776 13.6658 56.9225 14.3585 57.1732C14.7266 57.3064 15.0692 57.4652 15.1197 57.526C15.4587 57.9344 18.3708 57.1588 20.0364 56.2164C20.7382 55.8193 22.1074 54.498 22.3844 53.9503C22.599 53.5262 22.7674 53.386 22.8388 53.5721C22.9348 53.8223 22.4946 54.4768 21.6427 55.3505C20.9334 56.078 20.7076 56.2571 20.1033 56.5718C19.1678 57.059 18.1485 57.4479 17.0333 57.7433C16.5324 57.876 16.1226 58.0229 16.1226 58.0698C16.1226 58.1557 16.6923 58.6647 17.2107 59.042C17.5483 59.2877 18.0906 60.0049 18.0223 60.1154C17.9222 60.2774 17.7553 60.1829 17.4819 59.8109C17.3271 59.6 17.0713 59.3479 16.9134 59.2506C16.7555 59.1533 16.4223 58.8863 16.1729 58.6574C15.9235 58.4285 15.5573 58.1707 15.3591 58.0847C15.161 57.9986 14.9291 57.8673 14.8438 57.7929C14.7586 57.7185 14.5236 57.5959 14.3216 57.5207C14.0184 57.4077 13.9332 57.4014 13.8334 57.4845C13.6594 57.6288 13.7234 57.8936 13.9449 57.9455C14.0942 57.9803 14.1912 58.1345 14.4354 58.7238C14.6029 59.1278 14.8566 59.8117 14.9992 60.2436C15.3147 61.1992 15.6342 61.7878 16.1763 62.4121C16.58 62.8769 16.6907 63.1397 16.4826 63.1397C16.2908 63.1397 15.4489 62.0985 15.1337 61.4714C14.9628 61.1315 14.7479 60.6011 14.6562 60.2929C14.2966 59.0851 13.808 58.1796 13.5156 58.1796C13.4618 58.1796 13.2867 58.415 13.1266 58.7027C12.9665 58.9904 12.6548 59.5048 12.4338 59.8459C11.8735 60.7105 11.5136 61.3839 11.2806 62.0034C10.989 62.7786 10.7881 63.1397 10.6484 63.1397C10.4711 63.1397 10.5369 62.8668 10.9488 61.8936C11.2826 61.1049 11.8512 60.0706 12.3494 59.3458C12.7821 58.7163 13.1776 57.9289 13.1776 57.6966C13.1776 57.5312 13.2215 57.4561 13.3357 57.4262C13.5754 57.3635 13.4888 57.2426 12.9472 56.8838C12.1676 56.3674 11.9881 56.1483 11.5479 55.1765L11.1421 54.2805L11.0504 52.7822L10.9587 51.2839L10.6077 50.7598C10.4147 50.4715 10.1626 50.0787 10.0474 49.8869C9.80196 49.4782 8.76556 48.1287 8.10121 47.3529C6.692 45.7071 6.03685 44.8263 5.66384 44.076C5.3773 43.4996 5.04071 42.8815 4.74333 42.3853C4.60807 42.1596 4.4974 41.9604 4.4974 41.9426C4.4974 41.9245 4.26765 41.4294 3.98684 40.8417C3.08919 38.9628 3.08585 38.9524 3.08583 38.0313C3.08583 37.0021 3.33691 35.6824 3.65067 35.0625C3.84852 34.6716 3.87678 34.5334 3.8726 33.9774C3.86961 33.627 3.84274 33.0905 3.81212 32.785L3.7564 32.2298L3.18039 31.5918C2.62294 30.9745 2.60275 30.9383 2.55421 30.4693C2.52144 30.1524 2.44321 29.8992 2.32829 29.7378C2.23163 29.602 2.0319 29.2061 1.88445 28.8581C1.65566 28.3181 1.6206 28.1563 1.64532 27.7544C1.67683 27.2423 1.76189 27.0469 2.54515 25.6876C2.80903 25.2296 3.02493 24.8067 3.02493 24.7477C3.02493 24.6887 2.97279 24.5972 2.90904 24.5443C2.84529 24.4914 2.75259 24.3127 2.70302 24.1473C2.61217 23.844 2.53374 23.7782 2.44135 23.9277C2.34572 24.0824 2.19034 23.8494 2.14002 23.4758C2.0059 22.4801 2.01734 22.5121 1.81406 22.5631C1.55058 22.6293 1.49981 22.4371 1.69389 22.1082C1.86699 21.8148 1.97909 21.2174 1.88398 21.0952C1.85083 21.0525 1.75391 20.9792 1.66866 20.9322C1.4513 20.8125 1.43244 20.5484 1.62933 20.3817C1.80839 20.2301 2.24992 19.5031 2.24992 19.3598C2.24992 19.3048 2.17938 19.2886 2.06462 19.3174C1.77378 19.3904 1.75058 19.2172 2.01144 18.9201C2.36996 18.5118 2.31834 18.3543 1.89252 18.5574C1.68528 18.6562 1.6081 18.663 1.53422 18.5892C1.46033 18.5153 1.46048 18.4621 1.53499 18.342C1.5872 18.2578 1.6722 18.1207 1.72387 18.0374C1.87398 17.7954 1.73497 17.7644 1.4761 17.9822C1.24863 18.1736 1.00992 18.1884 1.00992 18.0111C1.00992 17.965 1.06593 17.704 1.13445 17.4309C1.27767 16.8598 1.20417 16.6641 0.937131 16.9057C0.739456 17.0846 0.54491 17.0097 0.54491 16.7547C0.54491 16.5792 0.526509 16.5657 0.388307 16.6396C0.302172 16.6857 0.197544 16.7024 0.155803 16.6765C0.113791 16.6505 0.0790749 16.2425 0.0780476 15.7622C0.0772815 15.2852 0.050342 14.7729 0.0186872 14.6237C-0.0129676 14.4745 -0.00343322 13.7773 0.0399153 13.0744C0.105906 12.0026 0.138742 11.7925 0.243065 11.7727C0.311515 11.7597 0.425634 11.8379 0.49673 11.9463C0.697376 12.2526 0.768078 12.1844 0.793097 11.6604C0.816039 11.1799 0.818052 11.1761 1.14555 10.9958C1.41524 10.8473 1.47493 10.7739 1.47493 10.5905C1.47493 10.3433 1.65113 10.2061 1.96868 10.2061C2.13083 10.2061 2.1666 10.1648 2.18691 9.95422C2.21059 9.70859 2.22132 9.70177 2.61808 9.67893C3.0323 9.65511 3.09509 9.60973 2.93524 9.44984C2.75964 9.27425 3.00868 9.12108 3.46974 9.12108C3.93507 9.12108 3.92822 9.13526 3.71644 8.60935C3.56379 8.23027 3.65521 8.11356 4.10482 8.11356C4.40832 8.11356 4.50938 8.08116 4.57226 7.96363C4.69512 7.73404 4.67244 7.65804 4.40936 7.41777C4.12793 7.16072 4.15124 6.97917 4.47483 6.90812C4.88697 6.81761 4.89761 6.80937 4.81086 6.64728C4.62218 6.29472 4.69143 6.23704 5.23378 6.29514C5.64861 6.3395 5.73753 6.32913 5.73753 6.23588C5.73753 6.17361 5.66625 6.0581 5.57912 5.97925C5.29366 5.7209 5.41054 5.53502 5.97004 5.35755C6.46401 5.20086 6.47455 5.19183 6.51255 4.89254L6.55128 4.58732L6.97755 4.54668C7.30786 4.51527 7.49232 4.44165 7.79712 4.21978C8.01343 4.06231 8.22956 3.84758 8.27738 3.74261C8.33824 3.60911 8.45599 3.5327 8.66924 3.48828C8.90274 3.43967 9.03605 3.34333 9.23851 3.07692C9.38391 2.88559 9.61176 2.65565 9.74485 2.56595C9.87794 2.47627 10.6403 2.18653 11.439 1.92211C12.2377 1.65767 12.9644 1.40531 13.0538 1.36128C13.1432 1.31726 13.3559 1.12631 13.5264 0.93695C13.8092 0.622861 13.9044 0.574122 14.6114 0.381352C15.3348 0.184111 15.4922 0.169821 16.9752 0.16668C18.0092 0.16459 18.7052 0.128091 18.9683 0.0625317C19.3477 -0.0320425 19.3875 -0.027678 19.6137 0.133437C19.8793 0.322551 19.5183 0.319824 23.2028 0.160303L24.3153 0.112098L24.9272 0.386368C25.8088 0.78152 26.1423 0.853232 26.8232 0.793906C27.5509 0.730527 28.2811 0.939788 28.7323 1.34122C29.2759 1.82483 30.8384 2.47775 31.7392 2.59771C32.8736 2.74877 34.1244 3.4592 34.4917 4.16103C34.6387 4.44212 35.4971 5.44355 35.7378 5.61486C35.8132 5.66849 35.9493 5.91263 36.0402 6.15736C36.2327 6.67582 36.6915 7.54156 36.8919 7.76486C36.9685 7.85011 37.2424 8.22375 37.5006 8.59519C37.9996 9.31301 38.1948 9.77287 38.2666 10.3999C38.3004 10.6952 38.3746 10.8585 38.5783 11.0866C38.8872 11.4323 39.2159 12.0946 39.2182 12.3762C39.2197 12.5887 39.3714 13.1149 39.5529 13.5387C39.6167 13.6879 39.7089 14.2285 39.7577 14.74C39.8086 15.2744 39.9444 16.0209 40.0769 16.4949C40.2877 17.2491 40.3083 17.4318 40.3179 18.6262C40.3279 19.8653 40.3375 19.9425 40.5032 20.1263C40.7924 20.447 41.2198 21.4479 41.3098 22.0155C41.3562 22.3085 41.4452 22.6468 41.5074 22.7672C41.6715 23.0844 41.6691 25.7046 41.5044 26.1714C41.4136 26.4289 41.3882 26.9037 41.3882 28.3432V30.1854L41.0014 31.0138C40.6483 31.77 40.4539 32.1241 39.8305 33.1465C39.6391 33.4606 39.6221 33.5459 39.6599 34.0029C39.7 34.4874 39.4995 35.9299 39.2941 36.6355C39.2214 36.8851 38.9779 38.8812 38.8311 40.4316C38.7515 41.2718 38.4017 42.1531 38.0157 42.4854L37.7457 42.718L37.8263 44.733C37.9535 47.9148 38.3347 50.8294 38.5207 50.0415C38.5458 49.9356 38.6205 49.8385 38.6869 49.8257C38.8226 49.7999 39.0361 50.4349 39.6059 52.5606C39.7887 53.2427 40.1947 54.489 40.5082 55.3301C40.8217 56.1714 41.0782 56.8835 41.0782 56.9128C41.0782 56.942 41.2567 57.361 41.4749 57.8437L41.8715 58.7213L41.7869 60.3686C41.6976 62.1086 41.6003 62.8704 41.3144 64.0697C41.0813 65.0475 41.0993 64.9996 40.9644 64.9996C40.88 64.9996 40.8457 64.9198 40.8457 64.7233L40.8457 64.7272ZM7.79641 31.7179C8.54496 31.3533 9.03328 31.0679 9.11081 30.9496C9.19204 30.8256 9.22599 30.6333 9.21025 30.3865L9.18634 30.0117L8.14008 30.0191C7.56463 30.0191 6.97085 30.0668 6.82057 30.1163C6.6526 30.1721 6.29497 30.4605 5.89227 30.8653C5.45366 31.3063 5.17901 31.5238 5.0611 31.5238C4.76407 31.5238 4.86136 31.7362 5.29087 32.0255C5.64059 32.261 5.75955 32.2988 6.15104 32.2988C6.55857 32.2988 6.72801 32.2389 7.7964 31.7187L7.79641 31.7179ZM3.83504 31.2486C4.11554 30.5773 5.54727 29.2588 6.29509 28.9832C6.60349 28.8695 6.99194 28.8205 7.84861 28.7874C8.47687 28.7628 9.02464 28.7225 9.06588 28.6967C9.21006 28.6076 9.04986 28.4213 8.5389 28.0838C7.77818 27.5814 7.33481 27.3795 6.48648 27.149L5.72414 26.9419L5.30459 27.2655C5.07383 27.4435 4.88503 27.6144 4.88503 27.6453C4.88503 27.6758 4.65921 27.8671 4.3832 28.0698C3.82614 28.4788 3.52534 28.9045 3.25381 29.6685C3.15643 29.9425 3.03024 30.2217 2.97338 30.289C2.78888 30.5074 2.86019 30.7441 3.22936 31.1388C3.42701 31.3501 3.61836 31.523 3.65457 31.523C3.69077 31.523 3.77201 31.3995 3.83504 31.2486ZM47.3728 61.7291C47.3292 61.6755 47.2526 61.4753 47.2028 61.2834C47.0938 60.8643 46.5112 59.8109 46.3883 59.8109C46.3403 59.8109 45.9193 59.5281 45.4527 59.1824C44.9862 58.8366 44.3255 58.3929 43.9845 58.1963C43.0381 57.6508 42.1513 56.6786 41.463 55.4321C41.3218 55.1764 41.0002 54.7492 40.7483 54.4828C40.3082 54.0174 40.238 53.8522 40.45 53.7815C40.5953 53.7327 41.4397 54.6683 41.6954 55.1608C42.3034 56.3322 43.2235 57.3564 44.1472 57.8903C44.484 58.0849 45.1082 58.5014 45.5345 58.8158C45.9608 59.1302 46.4027 59.4286 46.5165 59.4786C46.7844 59.5963 47.294 60.4528 47.5333 61.1871C47.634 61.4965 47.6992 61.7667 47.6782 61.7877C47.6086 61.8573 47.4535 61.8274 47.3728 61.7292V61.7291ZM11.8744 51.6926C11.8293 51.5754 11.7702 51.3576 11.7431 51.2084C11.6435 50.6589 11.137 49.2867 10.742 48.4957C9.96447 46.9386 9.38308 46.1343 7.94157 44.6215C7.11211 43.7509 6.79085 43.2209 6.63043 42.4583C6.56555 42.1501 6.47318 41.8244 6.42507 41.7345C6.31454 41.5279 6.37636 40.3026 6.50993 40.0531C6.68889 39.7186 7.24829 39.0411 7.34571 39.0409C7.52645 39.0409 7.44367 39.372 7.18337 39.6914C6.81992 40.1372 6.77239 40.2527 6.7177 40.8232C6.68038 41.2121 6.70451 41.4388 6.82349 41.8182C6.90823 42.0884 6.97757 42.388 6.97757 42.484C6.97757 42.8365 7.45511 43.6229 7.96294 44.1064C8.23764 44.3679 8.62439 44.7912 8.8224 45.0469C9.02042 45.3027 9.32682 45.6689 9.50329 45.8607C9.91132 46.3042 10.5326 47.2986 11.0527 48.3408C11.7731 49.7842 12.3799 51.9058 12.0722 51.9058C12.0086 51.9058 11.9195 51.8099 11.8744 51.6926ZM23.6404 51.025C23.6404 50.9665 23.7648 50.557 23.9168 50.1143C24.0689 49.6717 24.2638 49.0653 24.3499 48.767C24.4361 48.4686 24.6112 47.8789 24.739 47.4566C24.8667 47.0342 25.0867 46.1972 25.2276 45.5966C25.4986 44.4423 25.9215 42.9547 26.1992 42.1794C26.3502 41.7576 26.3614 41.6135 26.3191 40.6293C26.2675 39.4313 26.2012 38.9208 25.9128 37.5018C25.7718 36.808 25.7415 36.5209 25.803 36.4594C25.9516 36.3108 26.0451 36.504 26.231 37.3445C26.5279 38.6867 26.6645 39.802 26.6637 40.8768C26.663 41.7608 26.6375 41.9707 26.4751 42.4268C26.1904 43.2265 25.7746 44.7056 25.5424 45.7444C25.4281 46.256 25.2359 46.9884 25.1154 47.372C24.9949 47.7556 24.8377 48.2962 24.7662 48.5733C24.6005 49.2143 24.1219 50.639 23.9785 50.9177C23.8647 51.1389 23.6404 51.21 23.6404 51.025ZM21.8578 50.8359C21.8578 50.683 22.2533 50.0205 22.398 49.931C22.4477 49.9004 22.6725 49.6258 22.8978 49.3211C23.2295 48.8721 23.3758 48.5649 23.6683 47.7019C24.154 46.2695 24.2022 45.73 24.1495 42.3197C24.1103 39.7876 24.095 39.5512 23.9433 39.1381C23.8532 38.8926 23.7608 38.6099 23.7381 38.5097C23.6656 38.1897 23.9586 38.3456 24.1532 38.7306C24.4746 39.3663 24.5112 39.8738 24.4802 43.2643L24.4511 46.442L24.032 47.682C23.609 48.9334 23.3689 49.3755 22.7474 50.0458C22.6091 50.195 22.4042 50.4652 22.2922 50.6464C22.0825 50.9853 21.8578 51.0833 21.8578 50.8359H21.8578ZM12.5663 48.7731C12.294 48.6697 12.0269 48.5387 11.9729 48.4822C11.9188 48.4258 11.5877 47.961 11.2371 47.4494C10.8864 46.9379 10.3787 46.2206 10.1087 45.8553C9.66628 45.2567 9.62227 45.1638 9.6628 44.914C9.70481 44.6554 9.69229 44.6335 9.47618 44.586C9.08331 44.4997 8.92295 44.2495 8.82356 43.5676C8.71388 42.8151 8.75206 42.6486 9.12136 42.2695C9.46927 41.9122 11.3816 40.9639 12.1132 40.7858C12.379 40.7211 12.9103 40.5818 13.2939 40.4761C14.0805 40.2595 14.8872 40.06 15.9703 39.8141C16.6296 39.6644 16.88 39.6497 18.2953 39.6767C20.0519 39.7101 20.1976 39.7415 21.518 40.3654C22.2643 40.718 22.5801 41.0441 22.7537 41.6414C22.9087 42.1743 22.8639 42.6044 22.5447 43.6519C22.1463 44.9592 21.4806 46.1693 20.7221 46.9652C20.2518 47.4586 19.081 48.055 17.8795 48.4131C16.7218 48.7582 15.8039 48.8868 14.1852 48.9306C13.1423 48.9592 13.0258 48.9481 12.5663 48.7731ZM15.6965 48.498C17.1772 48.3192 18.3912 47.9788 19.4399 47.4488C20.0938 47.1182 20.9274 46.4631 20.9281 46.2791C20.9282 46.2408 21.0676 46.0002 21.2378 45.7444C21.4081 45.4887 21.5474 45.2022 21.5476 45.1079C21.5477 45.0136 21.6189 44.7561 21.7058 44.5356C21.7927 44.3152 21.8522 44.1001 21.8381 44.0577C21.8239 44.0152 21.5523 44.2601 21.2345 44.6016C20.6363 45.2446 20.6816 45.2158 18.754 46.1733C18.5175 46.2907 17.7328 46.59 17.0102 46.8383L15.6965 47.2898L14.4393 47.3197L13.1821 47.3497L12.6731 47.065C12.0487 46.7158 11.2265 45.961 10.8765 45.4157C10.6453 45.0554 10.5851 45.0088 10.3511 45.0088C10.2057 45.0088 10.0679 45.0395 10.0447 45.0764C10.0216 45.1133 10.1254 45.3052 10.2754 45.5016C10.4254 45.698 10.9292 46.4081 11.395 47.0793L12.2417 48.3L12.7291 48.4694C13.3553 48.6871 14.0739 48.694 15.6965 48.4986V48.498ZM14.0302 46.9115C14.0302 46.8927 13.9953 46.8558 13.9527 46.8295C13.9101 46.8037 13.8752 46.8183 13.8752 46.8636C13.8752 46.9089 13.9101 46.9457 13.9527 46.9457C13.9953 46.9457 14.0302 46.9304 14.0302 46.9116V46.9115ZM14.481 46.6879C14.4986 46.5395 14.4703 46.4807 14.3817 46.4807C14.2349 46.4807 14.1495 46.6635 14.2157 46.8359C14.2857 47.0184 14.4529 46.9251 14.481 46.6879ZM15.2159 46.8419C15.2852 46.6615 15.1538 46.2116 15.0247 46.1867C14.7667 46.1365 14.5092 46.7014 14.7019 46.8941C14.7947 46.9868 15.1751 46.9484 15.2159 46.8418V46.8419ZM15.9149 46.7134C15.9497 46.682 15.9672 46.5208 15.9536 46.3552C15.9311 46.0809 15.9076 46.0524 15.6852 46.0308C15.4477 46.0078 15.4408 46.0161 15.4135 46.3589C15.3981 46.5522 15.3974 46.746 15.4121 46.7892C15.4391 46.8705 15.8018 46.8157 15.9151 46.7134H15.9149ZM16.9975 46.1276C16.9674 45.7315 16.9191 45.682 16.612 45.7318C16.2109 45.7965 16.1114 46.0045 16.275 46.4349L16.3498 46.6316L16.6819 46.4886C16.9693 46.3646 17.0118 46.316 16.9975 46.1276ZM17.8627 46.008C18.1647 45.7205 17.791 45.251 17.3815 45.4035C17.1065 45.5059 17.0024 45.8111 17.1604 46.0522C17.265 46.2119 17.3306 46.2405 17.5007 46.201C17.6167 46.1745 17.7795 46.0871 17.8627 46.008ZM18.9731 45.5595C19.3447 45.3699 19.37 45.2861 19.1318 45.0326C18.9195 44.8066 18.8701 44.8082 18.5504 45.0521C18.1781 45.336 18.0176 45.5996 18.1326 45.7382C18.2381 45.8653 18.4703 45.8159 18.9731 45.5594V45.5595ZM19.9636 45.1292C20.1069 45.023 20.1076 45.0111 19.9784 44.8801C19.8564 44.7563 19.8308 44.7545 19.7237 44.8613C19.6563 44.9288 19.6263 45.0368 19.6545 45.1104C19.7155 45.2693 19.7697 45.2726 19.9636 45.1292H19.9636ZM12.1401 44.8371C12.2738 45.0167 12.5101 44.8727 12.5436 44.592L12.5682 44.3852L12.7604 44.5364C12.9419 44.6792 12.9751 44.6811 13.3558 44.5698C13.5775 44.5051 13.8566 44.4048 13.976 44.3466C14.0954 44.2881 14.2439 44.2602 14.306 44.2839C14.4919 44.3555 14.9583 44.2345 15.1195 44.0734C15.2024 43.9905 15.2702 43.8355 15.2702 43.729V43.5352L15.4264 43.6913C15.5406 43.8056 15.6395 43.8344 15.7945 43.7983C16.1357 43.7193 16.3552 43.5457 16.3552 43.3551C16.3552 43.2581 16.3936 43.1403 16.4405 43.0934C16.5014 43.0321 16.5025 42.9339 16.4442 42.7485C16.3994 42.6057 16.3216 42.3233 16.2713 42.1208C16.1994 41.8307 16.1463 41.7527 16.0207 41.7527C15.8057 41.7527 15.5026 42.0497 15.5026 42.2604C15.5026 42.3544 15.447 42.4774 15.379 42.5338C15.2916 42.6061 15.2669 42.7171 15.2948 42.9114C15.3166 43.0627 15.3076 43.2562 15.2749 43.3414C15.2156 43.4964 15.2156 43.4964 15.1719 43.3414C15.1478 43.2562 15.1057 43.0213 15.0783 42.8195C15.0444 42.5692 14.9752 42.4152 14.8608 42.3351C14.6341 42.1763 14.3706 42.1871 14.2476 42.3602C14.1919 42.4386 14.0699 42.5434 13.9764 42.593C13.8529 42.6585 13.8 42.768 13.7827 42.9942C13.7515 43.402 13.6394 43.4185 13.5313 43.0311C13.4518 42.7463 13.4208 42.7191 13.1508 42.6967C12.7224 42.6611 12.6351 42.7719 12.6351 43.3505C12.6351 43.6224 12.6066 43.8448 12.5718 43.8448C12.5371 43.8448 12.4308 43.7063 12.3357 43.5371C12.2406 43.3679 12.128 43.208 12.0855 43.1817C11.9448 43.0948 11.7826 43.317 11.7785 43.6024C11.7748 43.8806 11.7733 43.8817 11.6528 43.7092C11.5859 43.6133 11.4785 43.5348 11.4142 43.5348C11.2533 43.5348 11.3263 43.9518 11.5867 44.5206C11.7725 44.9267 11.7964 44.9493 11.9144 44.8312C12.0324 44.7133 12.0488 44.7136 12.14 44.8389L12.1401 44.8371ZM11.9039 44.2559C11.8618 44.1455 11.8707 44.1366 11.9472 44.2128C12.0002 44.2657 12.024 44.3278 12.0002 44.3516C11.9764 44.3753 11.933 44.3321 11.9039 44.2561L11.9039 44.2559ZM9.63354 43.6215C9.57596 42.782 9.62416 42.6313 9.98135 42.532C10.1409 42.4882 10.5614 42.4513 10.9159 42.4511C11.2703 42.4511 11.6326 42.4114 11.721 42.3647C11.8512 42.2947 13.2537 41.7923 14.9602 41.2036C15.1094 41.1521 15.4331 41.0256 15.6796 40.9224C16.914 40.4053 17.1969 40.3395 18.409 40.2869C19.4161 40.2431 19.5424 40.2236 19.3534 40.1423C19.0164 39.9968 16.6888 40.0162 15.9677 40.1708C15.1467 40.3464 14.2601 40.5631 13.4489 40.7865C13.0653 40.8922 12.534 41.0315 12.2682 41.0961C11.5221 41.2778 9.61072 42.2281 9.31557 42.5643C9.03826 42.8802 9.0425 42.8549 9.15258 43.5333C9.24124 44.0798 9.32569 44.2335 9.53728 44.2335C9.66172 44.2335 9.6713 44.1722 9.63354 43.6218V43.6215ZM17.4792 43.3213C17.7005 43.1592 17.9828 42.6137 17.9828 42.3481C17.9828 42.0691 17.7105 41.5235 17.5092 41.3991C17.3716 41.314 16.5095 42.234 16.513 42.4623C16.5174 42.7431 16.6842 42.9828 17.0188 43.1883C17.3601 43.398 17.3705 43.401 17.4792 43.3213ZM19.0601 42.714C19.2421 42.4826 19.3382 42.0698 19.2717 41.8049C19.2427 41.6894 19.1118 41.5717 18.912 41.4815L18.5979 41.3399L18.3291 41.6005C17.9715 41.947 17.9744 42.2002 18.3406 42.6054C18.6672 42.967 18.8406 42.9931 19.0602 42.714H19.0601ZM22.4778 42.2283C22.4778 41.9565 22.4335 41.7241 22.3641 41.6324C22.2599 41.4946 22.2501 41.5212 22.2489 41.9469C22.2481 42.2026 22.2684 42.49 22.2939 42.5854C22.3753 42.8889 22.4778 42.6898 22.4778 42.2283H22.4778ZM20.1474 42.4952C20.3024 42.3302 20.3173 42.2589 20.2696 41.912C20.2236 41.5772 20.1798 41.4985 19.9832 41.3968C19.7706 41.2868 19.7388 41.2881 19.6032 41.4108C19.4917 41.5117 19.4553 41.6499 19.4553 41.9723C19.4553 42.6382 19.7815 42.8846 20.1474 42.4952ZM21.2722 42.2784C21.4442 42.0328 21.4214 41.7175 21.2142 41.4766C21.0434 41.278 21.0296 41.275 20.8986 41.4058C20.816 41.4885 20.7779 41.6079 20.8028 41.7067C20.8254 41.7968 20.8137 41.9194 20.7768 41.9791C20.6833 42.1303 20.844 42.4505 21.0134 42.4505C21.0894 42.4505 21.2058 42.373 21.2722 42.2783L21.2722 42.2784ZM23.3836 43.3306C23.3544 43.3014 23.3304 42.9905 23.3304 42.6397C23.3304 40.0616 22.7471 38.4267 21.2622 36.8432C19.725 35.2038 18.4417 34.2655 17.6159 34.1772C17.1705 34.1299 17.0116 34.0297 17.1384 33.877C17.3101 33.6701 18.1283 33.8693 18.8657 34.3025C19.9274 34.923 22.0136 36.9767 22.6159 37.9943C23.3067 39.1613 23.6744 40.8115 23.625 42.5218C23.6035 43.2672 23.5384 43.4853 23.3837 43.3306H23.3836ZM8.55947 38.9715C8.13015 38.7097 8.00598 38.4744 7.94727 37.8112C7.90027 37.2802 7.91413 37.1615 8.05555 36.8843C8.14475 36.7095 8.29224 36.497 8.38332 36.4122C8.4744 36.3273 8.61034 36.0906 8.68541 35.8861C8.76047 35.6817 8.94473 35.2178 9.09487 34.8555C9.34042 34.263 9.84512 32.2773 9.84512 31.9039C9.84512 31.6568 9.66642 31.7345 9.25045 32.1624C8.52412 32.9093 7.06874 35.3632 6.77644 36.3337C6.57973 36.9868 6.35756 38.201 6.35756 38.6229C6.35756 38.9977 6.34058 39.0406 6.19219 39.0406C6.03171 39.0406 6.02812 39.0183 6.07031 38.2849C6.13273 37.2006 6.42632 36.149 6.96285 35.088C7.97767 33.0814 9.17794 31.4988 9.77788 31.3763L10.0389 31.3234L10.0605 30.3398C10.0795 29.4796 10.0576 29.272 9.88788 28.6858C9.78099 28.3171 9.56561 27.7565 9.40926 27.4401C9.20197 27.0206 9.14815 26.8416 9.21052 26.7792C9.41989 26.5699 9.84011 27.342 10.2267 28.6464C10.5054 29.5867 10.5161 29.9069 10.3125 31.2133C10.0139 33.1286 9.58707 34.7583 9.16557 35.5921C8.91084 36.096 8.84154 36.8913 9.02197 37.2402C9.17719 37.5404 9.18274 37.7234 9.03664 37.7234C8.87876 37.7234 8.60511 37.3103 8.60511 37.072C8.60511 36.9614 8.57144 36.8709 8.53033 36.8709C8.38085 36.8709 8.2951 37.1825 8.2951 37.7259C8.2951 38.2472 8.30984 38.295 8.5358 38.5061C8.70354 38.6628 8.85624 38.7309 9.03956 38.7309C9.33363 38.7309 9.35844 38.6884 9.17993 38.4913C8.88985 38.1708 9.6536 38.146 10.0056 38.4648C10.1439 38.59 10.1306 38.8087 9.98473 38.8087C9.94272 38.8087 9.81969 38.8787 9.71131 38.9637C9.45346 39.1665 8.88511 39.1706 8.55952 38.972L8.55947 38.9715ZM12.0307 38.4826C11.9795 38.4311 11.9377 38.296 11.9377 38.1816C11.9377 38.0212 12.0542 37.8741 12.4477 37.5383C12.7283 37.2988 13.0335 37.087 13.1259 37.0677C14.3394 36.8145 15.008 36.7976 15.2746 37.0134C15.3855 37.1032 15.4331 37.203 15.4028 37.2821C15.3593 37.3954 15.3275 37.3966 15.0824 37.294C14.7679 37.1626 14.3904 37.1494 13.9289 37.2536C13.7502 37.294 13.4819 37.3477 13.3327 37.3729C13.1602 37.4021 12.9221 37.5469 12.6787 37.7708C12.3441 38.0786 12.3075 38.1417 12.388 38.2705C12.4387 38.3517 12.4802 38.4534 12.4802 38.4966C12.4802 38.606 12.1437 38.5952 12.0307 38.4826ZM15.8182 37.3035C15.7445 37.2146 15.7973 37.1402 16.0967 36.9116C16.5966 36.53 16.7416 36.2894 16.7422 35.841C16.7429 35.3711 16.4317 34.7257 16.1536 34.62C15.7759 34.4764 15.3006 34.53 15.0452 34.7448C14.915 34.8545 14.7728 34.9221 14.7293 34.8952C14.573 34.7986 14.6549 34.5527 14.9021 34.3764C15.2244 34.1465 16.0333 34.1281 16.3962 34.3423C17.043 34.7243 17.3378 35.9758 16.9283 36.6008C16.7984 36.7991 16.0719 37.4129 15.9671 37.4129C15.9353 37.4129 15.8683 37.3634 15.8182 37.3032V37.3035ZM36.0137 31.4702C35.9847 31.4409 35.9822 30.857 36.0084 30.172C36.0625 28.7494 36.0018 28.4619 35.5368 27.9475C35.2804 27.6637 35.1825 27.3209 35.3316 27.2288C35.4281 27.1691 36.035 27.9397 36.2111 28.3454C36.3368 28.635 36.3633 28.8813 36.3675 29.7985C36.3705 30.4059 36.3893 30.9029 36.4099 30.9029C36.4304 30.9029 36.6625 30.7023 36.9256 30.4573C37.1887 30.2122 37.4993 29.9616 37.6159 29.9005C37.8026 29.8025 37.8423 29.8037 37.9493 29.9109C38.0596 30.0211 38.0303 30.0592 37.6318 30.3237C37.3904 30.4839 37.0894 30.7439 36.9628 30.9013C36.8363 31.0588 36.5985 31.2631 36.4343 31.3554C36.1031 31.5415 36.0889 31.5454 36.0138 31.4704L36.0137 31.4702ZM15.6577 29.7373C15.2649 29.6578 14.9379 29.3514 14.9754 29.0979C15.012 28.8509 15.1715 28.8545 15.3011 29.1053C15.4423 29.3786 15.6479 29.4306 16.5849 29.4306C17.2356 29.4306 17.2883 29.4172 18.0284 29.0541C18.4509 28.847 18.9831 28.5297 19.2111 28.3488C19.4857 28.1309 19.6516 28.046 19.7026 28.097C19.915 28.3093 19.2812 28.8259 18.1015 29.4021C17.3771 29.7559 17.2876 29.7803 16.6677 29.7938C16.304 29.802 15.8495 29.7767 15.6577 29.7379V29.7373ZM38.7531 29.3968C38.7531 29.3357 38.8572 29.1177 38.9843 28.9124C39.4154 28.2165 39.6056 27.4916 39.6056 26.5454C39.6056 25.9333 39.5726 25.6386 39.4847 25.4687C39.3473 25.203 39.3623 24.8966 39.5128 24.8966C39.5683 24.8966 39.6989 25.1058 39.803 25.3616C40.1921 26.3166 39.997 27.8062 39.3236 29.0235C39.1371 29.3606 39.0096 29.5079 38.9044 29.5079C38.8212 29.5079 38.7532 29.4579 38.7532 29.3968H38.7531ZM39.6163 29.3268C39.553 29.2505 39.6035 29.1112 39.8191 28.7665L40.1061 28.3077L40.1716 26.9395C40.2346 25.6236 40.2307 25.5589 40.0701 25.244C39.9436 24.996 39.925 24.8954 39.9933 24.829C40.0609 24.7633 40.1413 24.8092 40.3148 25.0126L40.5461 25.2839L40.5202 26.7564C40.4966 28.1003 40.479 28.2594 40.3195 28.5777C39.9337 29.3473 39.7743 29.5172 39.6163 29.3268H39.6163ZM12.0899 28.4809C11.8735 28.1302 11.8368 27.9452 11.8761 27.402C11.9007 27.0619 11.9499 26.9004 12.0517 26.826C12.2696 26.6666 12.314 26.7557 12.2683 27.2598C12.2389 27.5846 12.2661 27.852 12.3595 28.1482C12.5497 28.753 12.3841 28.9574 12.0899 28.4809ZM14.8052 28.0327C14.8052 27.2353 15.6841 26.4096 16.536 26.4065C16.9769 26.4051 17.1629 26.285 16.855 26.201C16.0575 25.9833 15.2968 26.2743 14.9375 26.9344C14.6693 27.4273 14.5171 27.5624 14.4442 27.3723C14.3628 27.1603 14.7877 26.4213 15.1362 26.1688C15.3019 26.0488 15.5625 25.9094 15.7152 25.8589C16.1133 25.7276 16.9175 25.8162 17.5565 26.0618C17.8549 26.1764 18.3431 26.2994 18.6415 26.3352C18.9399 26.3709 19.2767 26.4227 19.39 26.4503C19.5498 26.4892 19.8371 26.3818 20.6688 25.972C21.5348 25.5454 21.8287 25.3564 22.1938 24.9913C22.4426 24.7426 22.6867 24.5527 22.7363 24.5692C22.9203 24.6305 22.8157 24.8636 22.4232 25.2675C22.0956 25.6046 21.7932 25.7946 20.8123 26.28C19.9263 26.7183 19.5863 26.9255 19.536 27.058C19.4708 27.2297 19.4187 27.2412 18.4732 27.2946C17.3366 27.3587 16.5222 27.5611 15.6668 27.9919C14.9728 28.3413 14.8052 28.3493 14.8052 28.0328V28.0327ZM20.1694 27.7563C19.961 27.6023 20.1358 27.5003 20.7381 27.4244C21.0343 27.3871 21.4033 27.3035 21.5582 27.2385C21.92 27.087 23.1365 26.9795 23.2065 27.0929C23.2834 27.2173 22.9931 27.3377 22.6186 27.3369C22.4346 27.3369 22.0225 27.4216 21.7028 27.526C20.8712 27.7977 20.3345 27.8783 20.1694 27.7563ZM20.4134 26.9891C20.3405 26.799 20.4317 26.7543 21.2766 26.566C21.7342 26.4641 22.2442 26.289 22.5219 26.1385C23.1006 25.8248 23.7691 25.7066 23.8451 25.9045C23.9091 26.0711 23.7529 26.1724 23.4299 26.174C23.2928 26.1747 22.9615 26.2938 22.6936 26.4388C22.4127 26.5908 21.895 26.7729 21.4703 26.869C21.0654 26.9606 20.6729 27.0536 20.5981 27.0757C20.516 27.1003 20.4427 27.0653 20.4134 26.9891ZM35.7306 26.6943C35.7306 26.59 35.7796 26.3658 35.8395 26.196C35.8993 26.0263 35.9735 25.6525 36.0042 25.3655C36.0431 25.0026 36.1108 24.7847 36.2261 24.6506L36.3921 24.4577L37.0882 24.8209C37.4711 25.0208 37.8122 25.2011 37.8463 25.2216C37.8803 25.2421 37.8693 25.3058 37.8217 25.3631C37.7496 25.45 37.6834 25.4488 37.4196 25.3556C37.2459 25.2943 36.9858 25.1712 36.8415 25.082C36.4841 24.8612 36.3517 24.9299 36.3459 25.3394C36.3384 25.8481 36.0295 26.8267 35.8662 26.858C35.7669 26.877 35.7306 26.8331 35.7306 26.6942V26.6943ZM8.52808 25.2077C8.48517 25.0949 8.4501 24.9511 8.4501 24.8883C8.4501 24.8256 8.28829 24.4645 8.09054 24.0861C7.74708 23.4289 7.69738 23.15 7.92452 23.1546C8.08499 23.1574 8.76455 24.6272 8.78287 25.0105C8.8015 25.4004 8.64686 25.5201 8.52808 25.2077ZM9.47419 25.032C9.23067 24.3811 9.00232 23.4252 8.96042 22.8814C8.91789 22.3293 8.93316 22.2178 9.09966 21.864C9.3109 21.4151 9.40392 21.3282 9.52159 21.47C9.58006 21.5405 9.56062 21.6633 9.45284 21.9039C9.23447 22.3917 9.25289 23.1846 9.50066 23.9604C9.76642 24.7927 9.82651 25.2452 9.67129 25.2452C9.60671 25.2452 9.51803 25.1492 9.47417 25.032H9.47419ZM20.578 24.675C20.3655 24.5319 19.9713 24.3346 19.7021 24.2365C19.2261 24.063 19.1618 24.0595 17.3718 24.1068L15.5311 24.1554L14.9938 23.8367C14.0715 23.2896 13.4009 23.0757 12.6075 23.0753C11.8326 23.0753 10.5922 22.8789 10.3295 22.7152C10.0444 22.5375 10.1189 22.2971 10.6783 21.5898C11.5582 20.4771 12.1074 20.2075 13.4935 20.2075C14.4551 20.2075 14.6318 20.2678 15.4115 20.8615C16.078 21.369 16.4047 21.4475 17.8496 21.4475H19.0838L20.3585 22.0805C21.1761 22.4864 21.7044 22.7978 21.8315 22.9489C22.0172 23.1697 22.0264 23.2188 21.9763 23.7304C21.9135 24.3726 21.7224 24.7311 21.3792 24.8507C21.0359 24.9704 21.0078 24.9642 20.578 24.675V24.675ZM21.2378 24.5089C21.2378 24.445 21.203 24.3926 21.1603 24.3926C21.1177 24.3926 21.0828 24.4449 21.0828 24.5089C21.0828 24.5728 21.1177 24.6252 21.1603 24.6252C21.2029 24.6252 21.2378 24.5728 21.2378 24.5089ZM21.7224 23.8611C21.7679 23.6871 21.6445 23.4416 21.5431 23.5043C21.5031 23.529 21.4703 23.6518 21.4703 23.7772C21.4703 24.0332 21.6608 24.0966 21.7224 23.8611H21.7224ZM15.6577 21.6026C15.6577 21.5599 15.6229 21.5251 15.5802 21.5251C15.5376 21.5251 15.5027 21.56 15.5027 21.6026C15.5027 21.6452 15.5376 21.6801 15.5802 21.6801C15.6228 21.6801 15.6577 21.6452 15.6577 21.6026ZM14.5727 20.7888C14.5727 20.7249 14.5399 20.6726 14.4998 20.6726C14.4021 20.6726 14.3321 20.7936 14.394 20.8555C14.4813 20.9428 14.5727 20.9087 14.5727 20.7888L14.5727 20.7888ZM14.1077 20.6855C14.1077 20.5845 14.0156 20.5174 13.9406 20.5638C13.8605 20.6133 13.9296 20.7501 14.0348 20.7501C14.0749 20.7501 14.1077 20.721 14.1077 20.6855L14.1077 20.6855ZM23.212 24.1324C23.1279 24.0745 22.9339 24.0042 22.7809 23.9762C22.4595 23.9173 22.1261 23.6057 22.1943 23.4278C22.2577 23.2626 22.4263 23.2772 22.5941 23.4626C22.6712 23.5478 22.8249 23.6187 22.9355 23.62C23.0461 23.6214 23.2325 23.7069 23.3497 23.81C23.7 24.1184 23.5845 24.3888 23.212 24.1323V24.1324ZM4.24081 22.25C4.21146 22.2208 4.18755 22.0326 4.18755 21.832C4.18755 21.479 4.20617 21.4496 4.76637 20.9175C5.08471 20.6151 5.52938 20.2747 5.75451 20.1611C5.97964 20.0474 6.44284 19.7877 6.78384 19.5838C7.37803 19.2287 7.51851 19.1705 7.73324 19.1909C7.92942 19.2095 7.82219 19.4338 7.56595 19.5409C7.42066 19.6016 7.10728 19.7756 6.86957 19.9277C6.63185 20.0798 6.22844 20.3096 5.97311 20.4385C5.71777 20.5674 5.29324 20.8755 5.02971 21.1232C4.62126 21.5072 4.54381 21.6234 4.50469 21.9112C4.46104 22.2324 4.35692 22.3661 4.24083 22.25H4.24081ZM7.80425 20.5434C7.7758 20.515 7.75256 20.4452 7.75256 20.3884C7.75256 20.3129 7.88792 20.2851 8.25475 20.2851C8.81295 20.2851 9.02217 20.2179 10.3101 19.625C11.181 19.2241 11.7407 19.0783 11.939 19.2009C12.1403 19.3253 11.9508 19.4869 11.5476 19.5346C11.3131 19.5624 10.9156 19.7005 10.5999 19.8639C9.52901 20.4181 8.99919 20.5945 8.40485 20.5948C8.10292 20.5948 7.83264 20.5718 7.80422 20.5434H7.80425ZM10.196 19.126C10.1039 18.977 10.4549 18.8307 11.5889 18.5454C13.382 18.0943 13.4877 18.081 13.4877 18.3073C13.4877 18.4303 13.2468 18.5156 12.2864 18.7328C11.9028 18.8195 11.3448 18.9591 11.0464 19.043C10.4327 19.2155 10.2617 19.2322 10.196 19.126Z" fill="black"/>
</svg>
