<svg width="65" height="65" viewBox="0 0 65 65" fill="none" xmlns="http://www.w3.org/2000/svg">
<path d="M23.3514 28.2416C24.6521 24.2379 22.4651 19.9445 18.4608 18.6434C14.4573 17.3423 10.1637 19.5296 8.86259 23.5339C7.5617 27.5376 9.74872 31.8311 13.7531 33.1321C17.7387 34.4273 22.0505 32.2449 23.3514 28.2416ZM14.9301 29.51C12.9281 28.8595 11.8343 26.7131 12.4848 24.7109C13.1347 22.711 15.2801 21.6147 17.2839 22.2657C19.2858 22.916 20.3798 25.0626 19.7293 27.0647C19.0803 29.062 16.9274 30.159 14.9301 29.51Z" fill="black"/>
<path d="M26.1183 36.7579C22.7125 34.2833 17.9533 35.0369 15.4786 38.4431C13.0042 41.8487 13.7574 46.608 17.1638 49.0827C20.5832 51.567 25.3504 50.774 27.8035 47.3976C30.2779 43.9918 29.5246 39.2326 26.1183 36.7579ZM24.7223 45.1589C23.4878 46.8578 21.1015 47.2357 19.4025 46.0015C17.6995 44.7642 17.3226 42.3848 18.5599 40.6816C19.7969 38.9792 22.1767 38.6019 23.8797 39.839C25.5826 41.0763 25.9596 43.4559 24.7223 45.1589Z" fill="black"/>
<path d="M35.0727 36.7578C31.6669 39.2322 30.9128 43.9912 33.3875 47.3975C35.8494 50.7858 40.6199 51.5581 44.0272 49.0827C47.4328 46.6084 48.1872 41.8493 45.7124 38.443C43.238 35.0372 38.4791 34.2831 35.0727 36.7578ZM41.7886 46.0015C40.0896 47.236 37.7031 46.858 36.4688 45.159C35.2315 43.4561 35.6083 41.0765 37.3114 39.8391C39.0142 38.602 41.3938 38.9785 42.6312 40.6817C43.8685 42.3847 43.4917 44.7641 41.7886 46.0015Z" fill="black"/>
<path d="M37.8399 28.2418C39.1398 32.2424 43.4495 34.4286 47.4381 33.1322C51.4418 31.8313 53.6297 27.5384 52.3286 23.5341C51.0276 19.5302 46.7348 17.3426 42.7304 18.6436C38.7267 19.9445 36.5388 24.2374 37.8399 28.2418ZM43.9074 22.2657C45.9097 21.6152 48.056 22.709 48.7065 24.7109C49.3569 26.7129 48.2634 28.8594 46.2612 29.51C44.2638 30.1587 42.111 29.062 41.4622 27.0648C40.8115 25.063 41.9052 22.9163 43.9074 22.2657Z" fill="black"/>
<path d="M30.5956 22.9785C34.7957 22.9785 38.2128 19.5614 38.2128 15.3613C38.2128 11.1612 34.7957 7.74414 30.5956 7.74414C26.3955 7.74414 22.9784 11.1612 22.9784 15.3613C22.9784 19.5614 26.3955 22.9785 30.5956 22.9785ZM30.5956 11.5527C32.6957 11.5527 34.4042 13.2613 34.4042 15.3613C34.4042 17.4614 32.6957 19.1699 30.5956 19.1699C28.4955 19.1699 26.787 17.4614 26.787 15.3613C26.787 13.2613 28.4955 11.5527 30.5956 11.5527Z" fill="black"/>
<path d="M30.5956 32.4998C31.6473 32.4998 32.4999 31.6472 32.4999 30.5955C32.4999 29.5437 31.6473 28.6912 30.5956 28.6912C29.5439 28.6912 28.6913 29.5437 28.6913 30.5955C28.6913 31.6472 29.5439 32.4998 30.5956 32.4998Z" fill="black"/>
<path d="M63.947 61.3918C58.7008 58.7687 52.7836 57.3823 46.835 57.3823H45.3032C54.6922 52.1634 61.064 42.1133 61.064 30.5954C61.064 13.725 47.396 0 30.5955 0C13.753 0 0 13.7541 0 30.5954C0 47.438 13.7541 61.1909 30.5955 61.1909H46.835C52.1954 61.1909 57.5236 62.4383 62.2437 64.7985C63.1866 65.2698 64.3293 64.8854 64.7986 63.9469C65.2688 63.0062 64.8876 61.8623 63.947 61.3918ZM3.80857 30.5954C3.80857 15.8251 15.8251 3.80856 30.5955 3.80856C45.2958 3.80856 57.2555 15.8251 57.2555 30.5954C57.2555 45.3658 45.2958 57.3823 30.5955 57.3823C15.8252 57.3823 3.80857 45.3658 3.80857 30.5954Z" fill="black"/>
</svg>
