<svg width="65" height="65" viewBox="0 0 65 65" fill="none" xmlns="http://www.w3.org/2000/svg">
<path d="M32.9169 22.9421C29.2551 22.9421 26.2865 26.329 26.2865 30.5071C26.2865 34.685 29.255 38.0721 32.9169 38.0721C36.5787 38.0721 39.5473 34.6852 39.5473 30.5071C39.5473 26.329 36.5788 22.9421 32.9169 22.9421ZM32.9169 34.4696C30.9987 34.4696 29.4438 32.6954 29.4438 30.5069C29.4438 28.3184 30.9987 26.5443 32.9169 26.5443C34.835 26.5443 36.39 28.3184 36.39 30.5069C36.39 32.6954 34.835 34.4696 32.9169 34.4696Z" fill="black"/>
<path d="M59.3594 5.65076L16.2623 0.0672744C14.5897 -0.204048 12.895 0.353077 11.6054 1.59833C10.3159 2.73913 9.48931 4.43015 9.31632 6.28132L8.52707 13.6662H6.08C2.60693 13.6662 0.00213311 17.1783 0.00213311 21.141V57.9748C-0.0853432 61.7535 2.52852 64.8978 5.84054 64.9977C5.92031 65.0001 6.00023 65.0006 6.08 64.9994H49.4139C52.8869 64.9994 56.0442 61.9374 56.0442 57.9748V56.5339C57.121 56.2965 58.1425 55.8058 59.0437 55.093C60.3226 53.8645 61.1414 52.1247 61.3327 50.2299L64.9636 13.6662C65.3338 9.6944 62.8357 6.12152 59.3594 5.65076ZM52.8869 57.9748C52.8869 59.9561 51.1504 61.397 49.4139 61.397H6.08C4.51132 61.4496 3.20235 60.0413 3.15627 58.2515C3.15385 58.1593 3.15491 58.067 3.15944 57.9748V51.3105L15.394 41.0439C16.8638 39.7564 18.9339 39.8708 20.2879 41.314L28.8915 49.9596C30.1981 51.2112 31.8428 51.9109 33.5486 51.9409C34.8824 51.9595 36.1942 51.5543 37.3375 50.7701L52.8871 40.5035V57.9748H52.8869ZM52.8869 36.2707L35.6796 47.7082C34.202 48.7069 32.3318 48.5261 31.0225 47.2579L22.34 38.5222C19.8516 36.0825 16.2144 35.9329 13.5785 38.1619L3.15944 46.8075V21.141C3.15944 19.1597 4.34347 17.2685 6.08 17.2685H49.4139C51.2691 17.3562 52.7674 19.0269 52.8869 21.141V36.2707ZM61.8094 13.1799C61.8083 13.1918 61.8074 13.2038 61.8062 13.2157L58.0964 49.7795C58.1027 50.7275 57.7238 51.6255 57.0702 52.211C56.7545 52.5713 56.0441 52.7514 56.0441 52.9316V21.141C55.9194 17.0382 53.0108 13.7591 49.4137 13.6662H11.6842L12.3946 6.64159C12.5487 5.73195 12.9655 4.90764 13.5786 4.30001C14.2709 3.75392 15.1079 3.49931 15.9467 3.57947L58.965 9.25311C60.7006 9.44117 61.9742 11.1993 61.8094 13.1799Z" fill="black"/>
</svg>
