<svg width="65" height="65" viewBox="0 0 65 65" fill="none" xmlns="http://www.w3.org/2000/svg">
<path d="M28.9453 13.0568C29.6464 13.0568 30.2148 12.4212 30.2148 11.6376V7.09607C30.2148 3.1833 27.3672 0 23.8671 0H6.34764C2.84755 0 0 3.1833 0 7.09607V24.1249C0 28.0377 2.84755 31.221 6.34764 31.221H14.5605C14.2715 41.8234 10.6731 47.335 3.58426 48.056C2.93033 48.1226 2.42975 48.7354 2.42975 49.4694V63.5808C2.42975 63.9711 2.57346 64.344 2.82711 64.6121C3.0635 64.8618 3.37568 65 3.69915 65C3.72289 65 3.74676 64.9993 3.7705 64.9977C12.5186 64.4476 19.1967 61.082 23.6195 54.9941C27.9958 48.9701 30.2148 40.1679 30.2148 28.8316V23.7481C30.2148 22.9644 29.6464 22.3289 28.9453 22.3289C28.2441 22.3289 27.6757 22.9644 27.6757 23.7481V28.8316C27.6757 49.6435 20.2445 60.5271 4.96894 62.055V50.7246C8.8297 50.0533 11.816 48.0442 13.8565 44.741C16.0209 41.2368 17.1185 36.2107 17.1185 29.8018C17.1185 29.0181 16.5501 28.3826 15.8489 28.3826H6.34764C4.24759 28.3826 2.53906 26.4726 2.53906 24.1249V7.09607C2.53906 4.74841 4.24759 2.83843 6.34764 2.83843H23.8671C25.9672 2.83843 27.6757 4.74841 27.6757 7.09607V11.6376C27.6757 12.4212 28.2441 13.0568 28.9453 13.0568Z" fill="black"/>
<path d="M58.6523 0H41.1328C37.6327 0 34.7852 3.1833 34.7852 7.09607V24.1249C34.7852 28.0377 37.6327 31.221 41.1328 31.221H49.3456C49.0567 41.8234 45.4582 47.335 38.3694 48.056C37.7156 48.1226 37.2149 48.7354 37.2149 49.4694V63.5808C37.2149 63.9711 37.3586 64.344 37.6123 64.6121C37.8487 64.8619 38.1608 65 38.4843 65C38.508 65 38.5319 64.9993 38.5557 64.9977C47.3037 64.4476 53.9818 61.082 58.4046 54.9941C62.7809 48.9703 64.9999 40.1679 64.9999 28.8316V7.09607C64.9999 3.1833 62.1524 0 58.6523 0ZM62.4609 28.8316C62.4609 49.6435 55.0297 60.5271 39.754 62.055V50.7246C43.6149 50.0533 46.6012 48.0442 48.6416 44.741C50.806 41.237 51.9035 36.2108 51.9035 29.8018C51.9035 29.0181 51.3351 28.3826 50.634 28.3826H41.1328C39.0327 28.3826 37.3242 26.4726 37.3242 24.1249V7.09607C37.3242 4.74841 39.0327 2.83843 41.1328 2.83843H56.3671V13.3454C56.3671 14.1291 56.9355 14.7647 57.6367 14.7647C58.3378 14.7647 58.9062 14.1291 58.9062 13.3454V2.84893C60.8882 2.99568 62.4609 4.84392 62.4609 7.09607V28.8316Z" fill="black"/>
<path d="M57.6365 16.8533C56.9353 16.8533 56.3669 17.4957 56.3669 18.2794C56.3669 19.0631 56.9353 19.6987 57.6365 19.6987C58.3375 19.6987 58.906 19.0631 58.906 18.2794V18.2654C58.906 17.4817 58.3376 16.8533 57.6365 16.8533Z" fill="black"/>
<path d="M28.9454 16.2737C28.2443 16.2737 27.6759 16.9092 27.6759 17.6929V17.7226C27.6759 18.5062 28.2443 19.1418 28.9454 19.1418C29.6466 19.1418 30.215 18.5062 30.215 17.7226V17.6929C30.215 16.9092 29.6466 16.2737 28.9454 16.2737Z" fill="black"/>
</svg>
