<svg width="67" height="67" viewBox="0 0 67 67" fill="none" xmlns="http://www.w3.org/2000/svg">
<path d="M33.5 1C15.5799 1 1 15.5799 1 33.5C1 51.4214 15.5799 66 33.5 66C51.4214 66 66 51.4214 66 33.5C66 15.5799 51.4214 1 33.5 1ZM33.5 64.6735C16.3108 64.6735 2.32653 50.6892 2.32653 33.5C2.32653 16.3108 16.3108 2.32653 33.5 2.32653C50.6892 2.32653 64.6735 16.3108 64.6735 33.5C64.6735 50.6892 50.6892 64.6735 33.5 64.6735Z" fill="black" stroke="black" stroke-width="0.5"/>
<path d="M33.4998 8.95923C19.9679 8.95923 8.95898 19.9681 8.95898 33.5C8.95898 47.032 19.9679 58.0409 33.4998 58.0409C47.0317 58.0409 58.0406 47.032 58.0406 33.5C58.0406 19.9681 47.0317 8.95923 33.4998 8.95923ZM33.4998 56.7143C20.7001 56.7143 10.2855 46.2997 10.2855 33.5C10.2855 20.7004 20.7001 10.2858 33.4998 10.2858C46.2995 10.2858 56.7141 20.7004 56.7141 33.5C56.7141 46.2997 46.2995 56.7143 33.4998 56.7143Z" fill="black" stroke="black" stroke-width="0.5"/>
<path d="M46.1164 28.7378H36.9607L34.1312 20.0305C33.9535 19.484 33.0475 19.484 32.8697 20.0305L30.0402 28.7378H20.8845C20.5966 28.7378 20.3419 28.9236 20.2531 29.1968C20.1642 29.4701 20.261 29.7699 20.4945 29.9384L27.9018 35.3214L25.0724 44.0274C24.9835 44.3007 25.0803 44.6005 25.3138 44.769C25.5473 44.9374 25.8603 44.9374 26.0938 44.769L33.4998 39.3872L40.9071 44.769C41.0239 44.8525 41.1592 44.8963 41.2971 44.8963C41.4351 44.8963 41.5704 44.8539 41.6872 44.769C41.9193 44.6005 42.0161 44.3007 41.9286 44.0274L39.0991 35.3214L46.5064 29.9384C46.7386 29.7699 46.8354 29.4701 46.7479 29.1968C46.6577 28.9222 46.4043 28.7378 46.1164 28.7378ZM37.9291 34.5295C37.6969 34.698 37.6001 34.9977 37.6877 35.271L40.0356 42.4953L33.8898 38.0302C33.7731 37.9466 33.6364 37.9028 33.4998 37.9028C33.3632 37.9028 33.2265 37.9453 33.1098 38.0302L26.964 42.4953L29.3119 35.271C29.4008 34.9977 29.304 34.698 29.0705 34.5295L22.9247 30.0631H30.5217C30.8096 30.0631 31.0643 29.8773 31.1532 29.6041L33.4998 22.3811L35.8478 29.6054C35.9366 29.8787 36.1913 30.0644 36.4792 30.0644H44.0762L37.9291 34.5295Z" fill="black" stroke="black" stroke-width="0.5"/>
</svg>
