<svg width="67" height="67" viewBox="0 0 67 67" fill="none" xmlns="http://www.w3.org/2000/svg">
<path d="M65.4364 21.7536C60.9559 19.7064 60.1988 18.8021 59.2615 17.3028C58.0714 14.4448 54.6837 12.5796 50.8097 12.6478C45.6279 12.7417 42.3718 15.7248 39.9353 19.0365C38.4746 15.9727 35.38 13.7645 30.5388 12.3181C24.314 10.4581 20.5597 7.6397 18.5065 5.60285C16.2869 3.40134 15.521 1.61306 15.515 1.59859C15.3675 1.23969 15.0142 1.0033 14.6199 1C14.6172 1 14.6145 1 14.6118 1C14.2209 1 13.8673 1.22979 13.7148 1.58386C13.6628 1.70447 12.4318 4.58582 11.578 8.64188C11.4691 9.15921 11.8079 9.66525 12.3346 9.77228C12.8622 9.87879 13.3768 9.54642 13.4856 9.02921C13.8945 7.08707 14.4008 5.41064 14.8048 4.22019C16.5968 6.8164 20.8989 11.4372 29.972 14.1481C31.9145 14.7284 34.2873 15.6099 36.1067 17.1892C36.0918 17.1818 36.0763 17.175 36.0615 17.1676C35.9155 17.0955 35.7682 17.0247 35.6183 16.9562C35.607 16.951 35.5952 16.9462 35.5838 16.941C35.4446 16.8779 35.3033 16.8167 35.1607 16.7569C35.1137 16.7371 35.0661 16.7178 35.0187 16.6985C34.9043 16.6518 34.7887 16.6061 34.6721 16.5613C34.6256 16.5434 34.5793 16.5253 34.5325 16.5078C34.3735 16.4484 34.2132 16.3904 34.0503 16.3349C34.0396 16.3314 34.0286 16.3279 34.018 16.3243C33.865 16.2723 33.7098 16.2226 33.5534 16.1741C33.5026 16.1583 33.4512 16.143 33.4 16.1276C33.2759 16.0903 33.1506 16.054 33.0243 16.0187C32.9738 16.0046 32.9235 15.9902 32.8727 15.9765C32.7007 15.9299 32.5272 15.8846 32.3513 15.842C32.3423 15.8398 32.3332 15.8379 32.3244 15.8357C32.1566 15.7952 31.9867 15.7568 31.8154 15.7198C31.7609 15.708 31.7057 15.6967 31.6508 15.6853C31.5171 15.6575 31.3823 15.6306 31.2464 15.6049C31.192 15.5946 31.1377 15.5841 31.0829 15.5741C30.8977 15.5403 30.7111 15.5078 30.522 15.478C30.5159 15.4771 30.5097 15.4762 30.5037 15.4753C30.3202 15.4464 30.1345 15.4198 29.9473 15.3946C29.8896 15.3868 29.8313 15.3795 29.7733 15.3721C29.6296 15.3537 29.4846 15.3363 29.3388 15.3199C29.2808 15.3134 29.2229 15.3067 29.1645 15.3006C28.9662 15.2797 28.7666 15.2601 28.5644 15.2431C28.5614 15.2429 28.5583 15.2427 28.5554 15.2425C28.356 15.2257 28.1542 15.2115 27.9512 15.1985C27.8903 15.1947 27.8289 15.1913 27.7677 15.1878C27.6143 15.1789 27.4597 15.1711 27.3042 15.1644C27.2421 15.1617 27.1802 15.1588 27.1179 15.1565C26.9068 15.1487 26.6946 15.1419 26.4797 15.138C18.269 14.9844 12.7209 12.825 9.51249 11.0405C6.04286 9.11059 4.48533 7.19143 4.47176 7.17454C4.22447 6.86147 3.80629 6.73058 3.42005 6.84522C3.03393 6.95999 2.75988 7.29667 2.7308 7.69188C2.71852 7.85908 2.43879 11.8485 3.20714 17.0705C4.50097 25.8637 7.74542 31.0509 10.2394 33.8538C10.593 34.2516 11.2085 34.2924 11.6135 33.9447C12.0184 33.5971 12.0599 32.9929 11.706 32.5952C9.39008 29.992 6.37119 25.1457 5.1411 16.8393C4.733 14.0839 4.63088 11.6532 4.62261 10.013C5.51248 10.7695 6.77127 11.7036 8.44062 12.6422C11.8579 14.5635 17.7552 16.8879 26.4426 17.0504C26.6218 17.0537 26.7995 17.0586 26.9757 17.0648C27.0136 17.066 27.0507 17.0682 27.0884 17.0697C27.2262 17.0751 27.364 17.0806 27.5 17.0878C27.5372 17.0897 27.5736 17.0925 27.6107 17.0945C27.7461 17.1021 27.8814 17.1098 28.015 17.1192C28.0574 17.1223 28.0988 17.1261 28.1409 17.1293C28.2681 17.1388 28.3954 17.1483 28.521 17.1595C28.5577 17.1628 28.5934 17.1667 28.6299 17.1701C28.76 17.1822 28.8899 17.1945 29.0181 17.2082C29.0497 17.2117 29.0806 17.2157 29.112 17.2193C29.2438 17.234 29.3754 17.249 29.5053 17.2656C29.5508 17.2715 29.5953 17.2782 29.6405 17.2843C29.7553 17.2995 29.8702 17.3147 29.9834 17.3315C30.0388 17.3398 30.0931 17.3492 30.1482 17.3577C30.2499 17.3735 30.3519 17.3889 30.4523 17.406C30.5175 17.4171 30.5811 17.4294 30.6457 17.4409C30.7345 17.4568 30.824 17.4722 30.9117 17.4889C30.9845 17.5029 31.0559 17.5183 31.128 17.5329C31.2062 17.5487 31.2851 17.564 31.3625 17.5805C31.4332 17.5957 31.5025 17.6122 31.5726 17.6281C31.6497 17.6455 31.7277 17.6623 31.8041 17.6806C31.8749 17.6975 31.9443 17.7159 32.0145 17.7334C32.0883 17.752 32.1629 17.7699 32.2361 17.7892C32.3114 17.8091 32.3853 17.8304 32.4597 17.8511C32.5259 17.8695 32.593 17.8872 32.6585 17.9062C32.7378 17.9292 32.8154 17.9537 32.8937 17.9776C32.953 17.9957 33.013 18.0131 33.0718 18.0318C33.1508 18.0569 33.2282 18.0835 33.3061 18.1095C33.3626 18.1284 33.42 18.1466 33.476 18.1658C33.5534 18.1926 33.6293 18.2209 33.7057 18.2487C33.7606 18.2687 33.8164 18.288 33.8708 18.3084C33.9483 18.3376 34.0243 18.3683 34.1007 18.3986C34.1525 18.419 34.2048 18.4387 34.256 18.4595C34.3323 18.4906 34.407 18.5232 34.4822 18.5553C34.5321 18.5767 34.5828 18.5972 34.6322 18.6191C34.7077 18.6523 34.7815 18.6871 34.8558 18.7215C34.9032 18.7435 34.9516 18.7647 34.9986 18.787C35.0727 18.8223 35.1451 18.859 35.218 18.8953C35.2639 18.9182 35.3106 18.9403 35.3559 18.9636C35.4277 19.0004 35.4979 19.0388 35.5684 19.0766C35.6134 19.1007 35.6592 19.1241 35.7036 19.1487C35.7738 19.1874 35.8425 19.2277 35.9115 19.2674C35.9548 19.2924 35.9989 19.3167 36.0418 19.3421C36.1106 19.3828 36.1777 19.4251 36.2451 19.4669C36.2868 19.4926 36.3293 19.5177 36.3704 19.5439C36.4367 19.5862 36.5015 19.6298 36.5666 19.673C36.6075 19.7002 36.6492 19.7266 36.6897 19.7543C36.7535 19.7978 36.8157 19.8429 36.8784 19.8875C36.9186 19.916 36.9596 19.944 36.9993 19.973C37.0618 20.0189 37.1229 20.066 37.1843 20.1128C37.2225 20.142 37.2614 20.1705 37.2992 20.2C37.3597 20.2474 37.4185 20.2963 37.4778 20.3448C37.5151 20.3752 37.5531 20.4049 37.5898 20.4357C37.647 20.4838 37.7027 20.5333 37.7589 20.5823C37.7961 20.6149 37.8341 20.6467 37.8708 20.6797C37.9256 20.7289 37.9786 20.7796 38.0322 20.8297C38.0687 20.8639 38.1061 20.8974 38.142 20.9321C38.195 20.9831 38.2463 21.0355 38.2981 21.0874C38.3332 21.1226 38.369 21.1571 38.4035 21.1927C38.4546 21.2454 38.5041 21.2996 38.5541 21.3533C38.5878 21.3895 38.6223 21.4251 38.6554 21.4618C38.7047 21.5163 38.7523 21.5722 38.8004 21.6275C38.8351 21.6676 38.8709 21.7071 38.9051 21.7477C38.9116 21.7556 38.9193 21.7625 38.9261 21.7701C38.9427 21.7885 38.9592 21.8069 38.9771 21.8239C38.9884 21.8348 39.0006 21.8446 39.0125 21.8549C39.0249 21.8655 39.0365 21.8771 39.0493 21.8871C39.0535 21.8903 39.0578 21.893 39.062 21.8961C39.0709 21.9029 39.0802 21.9091 39.0893 21.9156C39.1085 21.929 39.128 21.9418 39.1481 21.9539C39.1584 21.9601 39.1688 21.9663 39.1792 21.9721C39.2016 21.9844 39.2243 21.9955 39.2475 22.0061C39.2555 22.0098 39.2631 22.0138 39.2713 22.0173C39.2991 22.0289 39.3274 22.0396 39.3562 22.0487C39.3581 22.0494 39.3602 22.0495 39.3621 22.0501C39.4054 22.0636 39.4498 22.074 39.4949 22.0814C39.5063 22.0833 39.5179 22.0839 39.5294 22.0854C39.5631 22.0897 39.597 22.0925 39.6314 22.0933C39.6397 22.0936 39.6477 22.0952 39.656 22.0952C39.6648 22.0952 39.6735 22.0936 39.6823 22.0933C39.6925 22.093 39.7025 22.0939 39.7127 22.0933C39.7291 22.0924 39.7452 22.0894 39.7614 22.0876C39.7723 22.0864 39.783 22.0868 39.7939 22.0853C39.7992 22.0845 39.8044 22.0829 39.8097 22.082C39.8359 22.0779 39.8615 22.0721 39.8871 22.0659C39.9018 22.0623 39.9166 22.0597 39.9313 22.0555C39.9706 22.044 40.009 22.0307 40.0463 22.0147C40.0471 22.0143 40.048 22.0142 40.0488 22.0138C40.0809 22 40.1115 21.9842 40.1414 21.9674C40.1481 21.9636 40.1544 21.9594 40.161 21.9554C40.1845 21.9413 40.2074 21.9266 40.2295 21.9107C40.2377 21.9049 40.2457 21.8988 40.2537 21.8927C40.2745 21.8767 40.2945 21.8601 40.3139 21.8427C40.3206 21.8367 40.3274 21.8309 40.334 21.8247C40.3381 21.8207 40.3425 21.8173 40.3466 21.8132C40.3519 21.808 40.3557 21.8017 40.3609 21.7964C40.3912 21.765 40.4194 21.7315 40.4455 21.6959C40.4517 21.6874 40.4584 21.6793 40.4644 21.6707C40.4675 21.6661 40.4711 21.6622 40.4741 21.6576C42.8632 18.0256 45.7735 14.6519 50.8463 14.56C50.903 14.5588 50.9591 14.5583 51.0156 14.5583C54.0036 14.5583 56.6479 15.9924 57.482 18.0821C57.5027 18.134 57.5281 18.1839 57.5577 18.2315C58.4617 19.6851 59.2632 20.6614 61.5397 21.9503C60.9169 22.0727 60.2463 22.2434 59.5565 22.4805C56.848 23.4116 53.333 25.5699 51.9691 30.5646C51.6678 31.6683 51.4793 32.85 51.2797 34.1011C50.5543 38.6504 49.732 43.8068 43.1681 48.8248C37.2762 53.3291 27.6034 52.6468 23.523 49.0792C23.2151 48.8099 22.7676 48.7601 22.4064 48.9553C18.7655 50.92 17.739 57.7428 17.5189 63.1203C17.5011 63.555 17.2245 63.932 16.8303 64.059C16.7527 64.084 16.7126 64.0869 16.6992 64.0869C16.6987 64.0869 16.698 64.0869 16.6974 64.0869C16.5015 64.0869 16.1887 63.9261 15.8864 63.7704C15.458 63.5502 14.9726 63.3005 14.407 63.2701C13.7831 63.239 13.2169 63.4518 12.7613 63.6243C12.5137 63.7183 12.1752 63.8465 12.0449 63.8309C11.8414 63.806 11.5483 63.5983 11.265 63.3976C10.8836 63.1274 10.4515 62.8213 9.91658 62.7106C9.30554 62.5843 8.7135 62.7011 8.23767 62.7953C8.01094 62.84 7.63128 62.9155 7.52283 62.8811C7.30527 62.8126 7.05243 62.5381 6.80798 62.2728C6.5108 61.9499 6.17406 61.5842 5.71439 61.3729C5.12882 61.1039 4.52062 61.0643 4.03173 61.0325C3.82051 61.0187 3.50303 60.998 3.40337 60.956C3.01079 60.6872 2.99566 60.6022 2.97964 60.5122C2.88669 59.9871 2.99967 59.438 3.29763 58.9661C5.73029 55.1137 9.8694 49.3773 15.7736 43.9253C18.421 41.4811 21.242 40.1303 21.2695 40.1172C21.6362 39.9441 21.8548 39.5651 21.8173 39.1672C21.78 38.7692 21.4944 38.436 21.1015 38.3317C18.8195 37.7263 16.736 36.7636 14.909 35.47C14.473 35.1613 13.864 35.2579 13.5495 35.6865C13.235 36.115 13.3336 36.7128 13.77 37.0217C15.1993 38.0338 16.7679 38.8618 18.4533 39.4953C17.3334 40.1905 15.8729 41.208 14.4393 42.5316C8.38115 48.1256 4.13644 54.008 1.64225 57.9577C1.09222 58.8286 0.885651 59.8521 1.06068 60.84C1.16319 61.419 1.4137 61.9287 2.30319 62.5349C2.79401 62.8693 3.38308 62.9075 3.90273 62.9414C4.2626 62.9648 4.63463 62.9892 4.88877 63.1058C4.99257 63.1536 5.20663 63.386 5.36305 63.5559C5.74115 63.9666 6.21194 64.4777 6.92885 64.7032C7.5196 64.8886 8.10517 64.7729 8.62185 64.6708C8.95367 64.6053 9.29688 64.5376 9.51456 64.5826C9.64615 64.6099 9.91193 64.798 10.1253 64.9492C10.5623 65.2586 11.106 65.6436 11.8037 65.7292C12.419 65.8044 12.9732 65.5944 13.4625 65.4092C13.7735 65.2913 14.0959 65.1701 14.3013 65.1805C14.444 65.1881 14.7425 65.3416 14.9824 65.4651C15.4459 65.7037 16.0221 66 16.6978 66C16.7015 66 16.7054 66 16.7091 66C16.9456 65.9987 17.1837 65.9584 17.4368 65.877C18.5997 65.503 19.4148 64.426 19.465 63.1972C19.7206 56.9494 20.9333 52.5774 22.8225 50.9898C25.2641 52.8224 28.8365 53.8742 32.7671 53.8973C37.1459 53.9231 41.3694 52.6244 44.3644 50.3344C51.5368 44.8512 52.4612 39.0548 53.2038 34.3972C53.395 33.198 53.5757 32.0653 53.8502 31.0602C54.7623 27.7199 56.878 25.4479 60.1385 24.3075C62.6483 23.4296 64.9344 23.573 64.9552 23.5745C65.4205 23.6057 65.8506 23.308 65.9688 22.861C66.0866 22.4144 65.8628 21.9482 65.4364 21.7536Z" fill="black" stroke="black"/>
<path d="M51.9282 17.0264C50.186 17.0264 48.7684 18.4185 48.7684 20.1298C48.7684 20.658 49.2044 21.0862 49.7423 21.0862C50.2805 21.0864 50.7163 20.6581 50.7163 20.1298C50.7163 19.4734 51.26 18.9393 51.9283 18.9393C52.5967 18.9393 53.1403 19.4734 53.1403 20.1298C53.1403 20.658 53.5764 21.0862 54.1142 21.0862C54.6521 21.0862 55.0881 20.658 55.0881 20.1298C55.0881 18.4185 53.6706 17.0264 51.9282 17.0264Z" fill="black" stroke="black"/>
</svg>
