<svg width="65" height="65" viewBox="0 0 65 65" fill="none" xmlns="http://www.w3.org/2000/svg">
<path d="M63.1504 52.9519L52.1301 41.9328C51.5451 41.3446 50.8492 40.8782 50.0827 40.5608C49.3162 40.2433 48.4944 40.0811 47.6648 40.0834C47.2335 40.0834 46.8033 40.1272 46.3808 40.2141C43.7029 36.6231 42.2535 32.2649 42.2475 27.7856C42.2476 23.6426 41.4314 19.5402 39.8458 15.7126C38.2602 11.885 35.9361 8.4072 33.0063 5.47769C31.2735 3.73562 29.2123 2.3545 26.9421 1.41426C24.6719 0.474028 22.2378 -0.00664382 19.7805 6.9359e-05C9.46706 6.9359e-05 1.07648 8.38981 1.07648 18.7021C1.07556 23.2466 2.73042 27.6357 5.73153 31.0485L7.35908 29.6182C4.52448 26.3934 3.05544 22.1926 3.26264 17.9042C3.46984 13.6159 5.33703 9.57628 8.46934 6.63969C11.6016 3.70309 15.7534 2.0998 20.0467 2.16889C24.3399 2.23797 28.438 3.97401 31.4742 7.00986C34.2028 9.73815 36.3672 12.9771 37.8439 16.5418C39.3206 20.1065 40.0807 23.9272 40.0807 27.7856C40.0848 30.0036 39.4295 32.1729 38.1981 34.0177C36.9666 35.8626 35.2145 37.2999 33.1643 38.1469C33.0187 38.2074 32.8881 38.2989 32.7815 38.4151C32.6749 38.5312 32.595 38.6693 32.5473 38.8195C32.4996 38.9698 32.4852 39.1286 32.5053 39.285C32.5253 39.4414 32.5792 39.5915 32.6633 39.7248L33.7467 41.4443C33.8908 41.6729 34.1152 41.8395 34.3757 41.9112C36.8744 42.5962 39.2217 43.7457 41.2949 45.2995C41.1185 46.1546 41.1206 47.0369 41.301 47.8911L43.4209 47.4423C43.2779 46.7666 43.3058 46.0659 43.5023 45.4038C43.6987 44.7417 44.0574 44.1391 44.5458 43.6507L44.7319 43.4647C45.4893 42.7072 46.5105 42.2722 47.5815 42.2509C48.6525 42.2295 49.6903 42.6234 50.4773 43.35C48.9566 43.4509 47.5249 44.1024 46.4499 45.1826L46.264 45.3686C45.7289 45.903 45.2945 46.5295 44.9816 47.218L46.954 48.1154C47.1594 47.6632 47.4447 47.2517 47.7962 46.9007L47.9822 46.7147C48.7599 45.9372 49.8145 45.5003 50.9142 45.5C52.0139 45.4998 53.0687 45.9362 53.8467 46.7134L54.8164 47.683C53.2938 47.7827 51.86 48.4344 50.7838 49.516L50.5979 49.7018C50.4041 49.8956 50.2231 50.1019 50.056 50.3192L51.7742 51.6395C51.8839 51.4968 52.0027 51.3614 52.13 51.2341L52.316 51.048C53.0734 50.2905 54.0946 49.8556 55.1657 49.8342C56.2367 49.8128 57.2745 50.2067 58.0615 50.9333C56.5408 51.0342 55.109 51.6857 54.0341 52.766L53.8481 52.952C52.6639 54.1362 51.9986 55.7422 51.9986 57.4168C51.9986 59.0913 52.6639 60.6973 53.8481 61.8815L54.034 62.0673C55.2183 63.2514 56.8245 63.9166 58.4992 63.9167C60.174 63.9167 61.7802 63.2515 62.9645 62.0674L63.1505 61.8813C64.3347 60.6972 65 59.0912 65 57.4166C65 55.742 64.3347 54.136 63.1504 52.9519L63.1504 52.9519ZM43.1996 41.9326L43.0136 42.1187C42.6786 42.4541 42.3821 42.8258 42.1297 43.227C40.071 41.7629 37.7828 40.6515 35.3591 39.9387L35.1484 39.6042C37.6259 38.2916 39.6269 36.2319 40.8671 33.7175C41.5719 36.3453 42.737 38.8274 44.3083 41.0486C43.9069 41.301 43.5351 41.5976 43.1996 41.9326V41.9326ZM61.6182 60.3493L61.4322 60.5354C60.6543 61.3131 59.5993 61.75 58.4992 61.75C57.3992 61.75 56.3442 61.313 55.5663 60.5352L55.3804 60.3494C54.6025 59.5716 54.1655 58.5167 54.1655 57.4167C54.1655 56.3168 54.6025 55.2619 55.3803 54.4841L55.5664 54.298C56.3443 53.5202 57.3993 53.0833 58.4993 53.0833C59.5994 53.0834 60.6544 53.5203 61.4323 54.2981L61.6182 54.4841H61.6183C62.3961 55.2618 62.8331 56.3167 62.8331 57.4167C62.8331 58.5166 62.3961 59.5715 61.6182 60.3493L61.6182 60.3493Z" fill="black"/>
<path d="M9.42671 25.6829L10.8275 24.2822L12.5456 26.0001L10.0614 28.484L11.5936 30.0162L14.0779 27.5322L15.4787 28.9329L17.0109 27.4007L15.6101 26.0001L17.3282 24.2822L19.0463 26.0001L17.6455 27.4007L19.1777 28.9328L20.5786 27.5322L22.2966 29.2501L21.9793 29.5673L23.5115 31.0995L23.8289 30.7822L25.2297 32.1828L26.7619 30.6507L25.3612 29.2501L27.0792 27.5322L28.7973 29.2501L27.3966 30.6507L28.9288 32.1828L30.3296 30.7822L33.8973 34.3495L35.4295 32.8173L31.8619 29.2501L33.5799 27.5322L36.0642 30.0162L37.5964 28.484L35.1122 26.0001L36.5129 24.5995L34.9807 23.0674L33.5799 24.468L31.8619 22.7501L33.5799 21.0322L34.9807 22.4329L36.5129 20.9007L35.1122 19.5001L36.5129 18.0995L34.9807 16.5674L33.5799 17.968L31.8619 16.2501L33.2626 14.8495L31.7304 13.3174L30.3296 14.718L28.6115 13.0001L31.0957 10.5162L29.5635 8.98404L27.0792 11.468L25.3612 9.75012L26.7619 8.34954L25.2297 6.81738L23.8289 8.21802L22.1108 6.50013L23.5116 5.09955L21.9794 3.56738L20.5786 4.96803L19.1778 3.56738L17.6456 5.09955L19.0463 6.50013L17.3282 8.21802L14.844 5.73405L13.3118 7.26621L15.7959 9.75012L14.0779 11.468L11.5936 8.98404L10.0614 10.5162L12.5456 13.0001L10.8275 14.718L8.34326 12.234L6.81106 13.7662L9.29524 16.2501L7.57716 17.968L6.17636 16.5674L4.64417 18.0995L6.04489 19.5001L4.64417 20.9007L6.17636 22.4329L7.57716 21.0322L9.29524 22.7501L7.89451 24.1507L9.42671 25.6829ZM14.0779 24.468L12.3598 22.7501L14.0779 21.0322L15.7959 22.7501L14.0779 24.468ZM23.8289 21.218L22.1108 19.5001L23.8289 17.7822L25.547 19.5001L23.8289 21.218ZM27.0792 21.0322L28.7973 22.7501L27.0792 24.468L25.3612 22.7501L27.0792 21.0322ZM20.5786 17.968L18.8605 16.2501L20.5786 14.5322L22.2966 16.2501L20.5786 17.968ZM19.0463 19.5001L17.3282 21.218L15.6101 19.5001L17.3282 17.7822L19.0463 19.5001ZM18.8605 22.7501L20.5786 21.0322L22.2966 22.7501L20.5786 24.468L18.8605 22.7501ZM23.8289 27.718L22.1108 26.0001L23.8289 24.2822L25.547 26.0001L23.8289 27.718ZM32.0477 26.0001L30.3296 27.718L28.6115 26.0001L30.3296 24.2822L32.0477 26.0001ZM32.0477 19.5001L30.3296 21.218L28.6115 19.5001L30.3296 17.7822L32.0477 19.5001ZM28.7973 16.2501L27.0792 17.968L25.3612 16.2501L27.0792 14.5322L28.7973 16.2501ZM25.547 13.0001L23.8289 14.718L22.1108 13.0001L23.8289 11.2822L25.547 13.0001ZM20.5786 8.03223L22.2966 9.75012L20.5786 11.468L18.8605 9.75012L20.5786 8.03223ZM17.3282 11.2822L19.0463 13.0001L17.3282 14.718L15.6101 13.0001L17.3282 11.2822ZM14.0779 14.5322L15.7959 16.2501L14.0779 17.968L12.3598 16.2501L14.0779 14.5322ZM9.10943 19.5001L10.8275 17.7822L12.5456 19.5001L10.8275 21.218L9.10943 19.5001Z" fill="black"/>
<path d="M19.4232 43.4371C20.517 42.7538 21.7439 42.3116 23.0221 42.1399C24.3003 41.9682 25.6004 42.0709 26.8357 42.4413L29.6291 43.2794C30.0942 44.6954 30.3308 46.1764 30.3297 47.6667H32.4966C32.4959 44.0316 31.2759 40.5017 29.0318 37.6418C26.7878 34.7818 23.6493 32.757 20.1184 31.8912C16.5875 31.0253 12.8682 31.3686 9.55542 32.8659C6.24265 34.3633 3.52781 36.9283 1.84515 40.1506C0.162484 43.3729 -0.390779 47.0664 0.273854 50.6403C0.938487 54.2142 2.78262 57.4619 5.51126 59.864C8.23991 62.2662 11.6954 63.6839 15.3251 63.8904C18.9547 64.097 22.5488 63.0805 25.5324 61.0034L24.2927 59.2263C22.9443 60.168 21.4403 60.8645 19.8499 61.2838L18.3227 59.5392C16.2846 57.2099 15.1613 54.2201 15.1615 51.1253C15.1602 49.6098 15.541 48.1185 16.2686 46.7891C18.052 47.456 19.7641 48.3 21.3791 49.3085L25.4219 51.8354L26.5705 49.998L22.5274 47.4711C20.9541 46.4894 19.2948 45.6524 17.5701 44.9706C18.1163 44.3787 18.7396 43.8629 19.4232 43.4371ZM28.4641 40.6678L27.4587 40.3661C25.9283 39.9072 24.3176 39.7798 22.734 39.9924C21.1504 40.2051 19.6304 40.753 18.2753 41.5994C17.1676 42.2899 16.1903 43.1702 15.3883 44.1999C14.4508 43.909 13.495 43.6632 12.5292 43.4633C14.8149 39.8088 17.9939 36.7968 21.7665 34.7113C24.5846 35.9201 26.9347 38.0102 28.4641 40.6678ZM18.9872 33.8523C15.3878 36.2017 12.3882 39.3606 10.2281 43.0764C9.27209 42.9532 8.30727 42.8759 7.34265 42.8436C8.01364 40.5509 8.44966 38.1959 8.64398 35.815C11.7079 33.8475 15.4153 33.1439 18.9872 33.8523ZM2.16006 47.6667C2.16004 46.8627 2.22873 46.0601 2.36538 45.2677C3.00498 45.1781 3.64818 45.1099 4.29496 45.0632C3.71786 46.5281 3.03694 47.95 2.2574 49.318C2.19281 48.77 2.16031 48.2186 2.16006 47.6667ZM6.24171 37.7625C5.98801 39.4868 5.59832 41.1882 5.07628 42.851C4.36747 42.8797 3.65814 42.9321 2.95239 43.0099C3.64672 41.0388 4.77021 39.2466 6.24171 37.7625ZM2.95354 52.3268C4.46272 50.0344 5.69907 47.5736 6.63746 44.9945C7.47211 45.0038 8.30791 45.0504 9.13908 45.1331C7.24987 49.0755 6.32977 53.4121 6.45537 57.7818C4.88073 56.2597 3.68186 54.3921 2.95354 52.3268ZM16.6919 60.966L17.3413 61.7079C16.9781 61.7357 16.6126 61.7498 16.2449 61.75C13.5882 61.7531 10.9855 61.0002 8.74072 59.5794C8.24365 54.7118 9.16727 49.8044 11.3999 45.4504C12.338 45.6205 13.267 45.8376 14.1834 46.1008C13.4004 47.6599 12.9932 49.3806 12.9946 51.1253C12.9944 54.745 14.3082 58.2417 16.6919 60.966Z" fill="black"/>
<path d="M42.2478 49.8333C40.9175 49.8322 39.6106 50.1834 38.4599 50.8511C37.307 50.1846 35.999 49.8334 34.6673 49.8328C33.3356 49.8321 32.0272 50.1821 30.8736 50.8476C29.7201 51.513 28.7622 52.4703 28.0961 53.6234C27.4301 54.7765 27.0794 56.0845 27.0793 57.4161C27.0793 58.7477 27.4299 60.0558 28.0959 61.2089C28.7619 62.362 29.7198 63.3194 30.8732 63.9849C32.0267 64.6504 33.3351 65.0005 34.6668 64.9999C35.9985 64.9994 37.3066 64.6483 38.4595 63.9819C39.4669 64.5631 40.5945 64.9049 41.7551 64.9807C42.9157 65.0565 44.0782 64.8643 45.1526 64.4191C46.2271 63.9738 47.1847 63.2874 47.9513 62.4128C48.718 61.5383 49.2732 60.4992 49.574 59.3758C49.8748 58.2524 49.9131 57.0749 49.686 55.9344C49.4588 54.7938 48.9723 53.7208 48.2641 52.7983C47.5559 51.8758 46.6449 51.1286 45.6017 50.6145C44.5585 50.1003 43.4109 49.833 42.2478 49.8333ZM47.6434 56.9461L47.3478 56.6506C46.9626 56.2655 46.5054 55.9599 46.0021 55.7515C45.4989 55.543 44.9595 55.4357 44.4147 55.4357C43.87 55.4357 43.3306 55.543 42.8274 55.7515C42.3241 55.9599 41.8668 56.2655 41.4817 56.6506C41.2977 56.8346 41.0793 56.9805 40.839 57.08C40.5986 57.1796 40.341 57.2308 40.0809 57.2308C39.8207 57.2308 39.5631 57.1795 39.3228 57.08C39.0825 56.9804 38.8641 56.8345 38.6801 56.6505L37.2828 55.2533C37.7635 54.1492 38.5987 53.2368 39.6561 52.6605C40.7135 52.0841 41.9329 51.8766 43.1215 52.0708C44.3101 52.265 45.4 52.8498 46.2189 53.7328C47.0379 54.6157 47.5391 55.7465 47.6434 56.9461H47.6434ZM34.6637 51.9999C35.3268 51.9994 35.9844 52.1208 36.6036 52.3581C35.6889 53.3755 35.0672 54.6218 34.8048 55.9644C34.4722 56.1503 34.1669 56.3812 33.8975 56.6506C33.7136 56.8346 33.4952 56.9805 33.2548 57.08C33.0145 57.1796 32.7569 57.2308 32.4967 57.2308C32.2366 57.2308 31.979 57.1795 31.7387 57.08C31.4983 56.9804 31.2799 56.8345 31.096 56.6505L29.6986 55.2533C30.1205 54.2872 30.8148 53.465 31.6966 52.8872C32.5784 52.3094 33.6094 52.0011 34.6637 51.9999ZM29.2682 57.8871L29.5637 58.1825C30.2389 58.8574 31.1261 59.2789 32.0758 59.376C33.0254 59.473 33.9796 59.2397 34.7773 58.7154C35.0207 60.1154 35.6537 61.4186 36.6038 62.4754C35.8205 62.7751 34.9782 62.8889 34.1434 62.8079C33.3086 62.7269 32.5039 62.4532 31.7929 62.0084C31.0818 61.5637 30.4837 60.9599 30.0456 60.2448C29.6075 59.5296 29.3413 58.7225 29.2682 57.8871ZM42.2478 62.8333C40.8932 62.8315 39.5882 62.3229 38.5897 61.4075C37.5912 60.4922 36.9714 59.2363 36.8523 57.8871L37.1479 58.1825C37.533 58.5677 37.9903 58.8733 38.4936 59.0817C38.9968 59.2902 39.5362 59.3975 40.0809 59.3975C40.6257 59.3975 41.1651 59.2902 41.6683 59.0817C42.1716 58.8733 42.6289 58.5677 43.014 58.1825C43.198 57.9986 43.4163 57.8527 43.6567 57.7532C43.897 57.6536 44.1546 57.6024 44.4148 57.6024C44.6749 57.6024 44.9326 57.6537 45.1729 57.7532C45.4132 57.8528 45.6316 57.9987 45.8155 58.1827L47.2129 59.5799C46.791 60.546 46.0968 61.3682 45.215 61.946C44.3332 62.5238 43.3021 62.8321 42.2478 62.8333Z" fill="black"/>
</svg>
