<svg width="65" height="65" viewBox="0 0 65 65" fill="none" xmlns="http://www.w3.org/2000/svg">
<path d="M32.5 7.10938C29.0852 7.10938 25.7471 8.12199 22.9077 10.0192C20.0684 11.9163 17.8554 14.6129 16.5487 17.7677C15.2419 20.9226 14.8999 24.3942 15.5661 27.7434C16.2323 31.0926 17.8767 34.169 20.2914 36.5836C22.706 38.9983 25.7824 40.6427 29.1317 41.3089C32.4809 41.9751 35.9524 41.6332 39.1073 40.3264C42.2622 39.0196 44.9587 36.8066 46.8559 33.9673C48.753 31.128 49.7656 27.7898 49.7656 24.375C49.7605 19.7974 47.9398 15.4088 44.703 12.172C41.4662 8.93517 37.0776 7.11448 32.5 7.10938ZM33.5156 23.3481V18.2985C35.5243 18.2787 37.4863 18.2008 39.3739 18.0662C39.7483 19.7062 39.9739 21.3767 40.0479 23.0573C37.9571 23.2267 35.7637 23.3252 33.5156 23.3481ZM40.0659 25.0929C40.0247 26.8632 39.8168 28.6257 39.4449 30.357C37.5281 30.4994 35.5376 30.5829 33.5157 30.604V25.3792C35.7648 25.3566 37.9635 25.2598 40.0659 25.093V25.0929ZM33.5156 16.2674V12.9334C34.7865 12.8794 36.0477 12.6877 37.2772 12.3616C37.9093 13.5466 38.4317 14.7869 38.8377 16.0672C37.1187 16.1817 35.3379 16.2491 33.5156 16.2674ZM32.5 9.14062C34.2778 9.14438 36.0411 9.46145 37.7089 10.0773C36.0358 10.6644 34.2729 10.9539 32.5 10.9328C30.7271 10.9539 28.9642 10.6644 27.2912 10.0773C28.9589 9.46145 30.7222 9.14438 32.5 9.14062ZM27.33 12.2386C28.6808 12.6407 30.0762 12.8741 31.4844 12.9334V16.2674C29.5029 16.2475 27.5691 16.1702 25.7123 16.0366C26.1307 14.7225 26.6724 13.4509 27.33 12.2386ZM24.4945 23.0202C24.5706 21.3416 24.7981 19.6732 25.1741 18.0355C27.1984 18.1904 29.3161 18.2772 31.4844 18.2985V23.3481C29.0722 23.3235 26.7207 23.213 24.4945 23.0202ZM31.4844 25.3792V30.604C29.2984 30.5811 27.1472 30.4863 25.089 30.3223C24.7191 28.5899 24.5133 26.8265 24.4743 25.0555C26.7142 25.2454 29.0707 25.3549 31.4844 25.3792ZM24.9288 11.1739C25.0896 11.2765 25.2644 11.3715 25.4412 11.4662C24.7031 12.8706 24.104 14.3437 23.6525 15.8647C22.454 15.7478 21.2935 15.608 20.1852 15.4431C21.4494 13.703 23.0656 12.2484 24.9288 11.1739ZM19.015 17.31C20.3239 17.5245 21.698 17.7061 23.1375 17.855C22.777 19.4881 22.5537 21.1484 22.4698 22.8188C20.6795 22.6163 19.0009 22.3579 17.4624 22.049C17.7138 20.3942 18.2385 18.7928 19.015 17.31ZM17.2656 24.375C17.2656 24.2771 17.2785 24.1825 17.2803 24.085C18.8702 24.3961 20.6009 24.6543 22.4372 24.8571C22.4614 26.626 22.6396 28.3895 22.9699 30.1274C21.2582 29.9456 19.6422 29.7131 18.1484 29.4366C17.5677 27.8121 17.2692 26.1002 17.2656 24.375ZM24.9288 37.5761C22.4912 36.1759 20.4854 34.1327 19.1307 31.6696C20.4962 31.8878 21.9494 32.0691 23.4602 32.216C23.9319 33.9731 24.5962 35.6726 25.4412 37.2837C25.2644 37.3785 25.0896 37.4736 24.9288 37.5761V37.5761ZM31.4844 32.6351V35.8166C30.0762 35.8759 28.6808 36.1092 27.33 36.5113C26.6239 35.2014 26.0518 33.8235 25.6225 32.3987C27.5229 32.5351 29.4898 32.6147 31.4844 32.6351ZM32.5 39.6094C30.7222 39.6056 28.959 39.2885 27.2912 38.6727C28.9642 38.0856 30.7271 37.7961 32.5 37.8172C34.2729 37.7961 36.0358 38.0856 37.7088 38.6727C36.0411 39.2885 34.2778 39.6056 32.5 39.6094ZM37.2772 36.3884C36.0477 36.0623 34.7865 35.8706 33.5156 35.8166V32.6351C35.3456 32.6164 37.1549 32.5503 38.9088 32.4337C38.4937 33.8015 37.9472 35.1259 37.2772 36.3884ZM40.0713 37.5761C39.7918 37.3975 39.5016 37.2362 39.2023 37.0931C39.991 35.5523 40.6162 33.9332 41.0678 32.2623C42.7496 32.1085 44.3615 31.9106 45.8694 31.6697C44.5146 34.1327 42.5088 36.176 40.0713 37.5761ZM47.7344 24.375C47.7308 26.1002 47.4323 27.8121 46.8517 29.4366C45.2231 29.738 43.4444 29.9846 41.5615 30.1732C41.8945 28.4367 42.0756 26.6744 42.1026 24.9065C44.1098 24.697 45.9976 24.422 47.7197 24.085C47.7216 24.1825 47.7344 24.2771 47.7344 24.375ZM47.5376 22.049C45.8693 22.384 44.0331 22.6582 42.0729 22.8676C41.9919 21.1953 41.7712 19.5328 41.413 17.8973C43.0132 17.7438 44.5412 17.5466 45.9851 17.31C46.7615 18.7927 47.2862 20.3942 47.5376 22.049ZM40.9003 15.9045C40.468 14.4388 39.8995 13.0167 39.2023 11.6569C39.5016 11.5138 39.7918 11.3525 40.0713 11.1739C41.9344 12.2484 43.5506 13.703 44.8148 15.4431C43.5703 15.6283 42.257 15.7799 40.9003 15.9044V15.9045Z" fill="black"/>
<path d="M59.9217 12.1876V10.0121C60.8791 9.76491 61.7135 9.17703 62.2684 8.35867C62.8234 7.5403 63.0608 6.54763 62.9362 5.56672C62.8116 4.58582 62.3336 3.68402 61.5916 3.03038C60.8497 2.37673 59.8949 2.01611 58.9061 2.01611C57.9173 2.01611 56.9625 2.37673 56.2205 3.03038C55.4786 3.68402 55.0006 4.58582 54.876 5.56672C54.7514 6.54763 54.9888 7.5403 55.5438 8.35867C56.0987 9.17703 56.9331 9.76491 57.8905 10.0121V11.172H50.5106C48.648 8.62393 46.2657 6.50029 43.5213 4.9414C40.7769 3.38252 37.7329 2.42391 34.5904 2.12894C31.448 1.83396 28.2787 2.20935 25.2922 3.23028C22.3056 4.25121 19.5697 5.89443 17.2655 8.05132V6.09383C17.2655 5.96045 17.2392 5.82836 17.1882 5.70513C17.1372 5.58189 17.0624 5.46991 16.9681 5.3756C16.8738 5.28128 16.7618 5.20647 16.6385 5.15544C16.5153 5.10442 16.3832 5.07817 16.2498 5.07821H10.0119C9.76467 4.12082 9.17679 3.28645 8.35842 2.7315C7.54005 2.17655 6.54738 1.93912 5.56648 2.06371C4.58557 2.1883 3.68378 2.66636 3.03013 3.40828C2.37649 4.1502 2.01587 5.10504 2.01587 6.09383C2.01587 7.08262 2.37649 8.03746 3.03013 8.77938C3.68378 9.5213 4.58557 9.99936 5.56648 10.124C6.54738 10.2485 7.54005 10.0111 8.35842 9.45616C9.17679 8.90121 9.76467 8.06684 10.0119 7.10946H15.2342V10.1563H15.277C11.9627 14.1529 10.1511 19.1831 10.1561 24.3751C10.3102 30.158 12.0692 35.7842 15.2366 40.6251H7.10921V38.4496C8.0666 38.2024 8.90097 37.6145 9.45592 36.7962C10.0109 35.9778 10.2483 34.9851 10.1237 34.0042C9.99912 33.0233 9.52106 32.1215 8.77914 31.4679C8.03722 30.8142 7.08237 30.4536 6.09359 30.4536C5.1048 30.4536 4.14996 30.8142 3.40804 31.4679C2.66612 32.1215 2.18806 33.0233 2.06347 34.0042C1.93887 34.9851 2.17631 35.9778 2.73126 36.7962C3.28621 37.6145 4.12057 38.2024 5.07796 38.4496V41.6407C5.07793 41.7741 5.10417 41.9062 5.1552 42.0294C5.20623 42.1526 5.28104 42.2646 5.37535 42.3589C5.46967 42.4533 5.58165 42.5281 5.70488 42.5791C5.82812 42.6301 5.9602 42.6564 6.09359 42.6563H16.6541C17.0427 43.1702 17.4405 43.6751 17.8576 44.1589C18.5336 44.9482 19.1249 45.8062 19.6218 46.7188H14.2186C14.0852 46.7188 13.9531 46.745 13.8299 46.7961C13.7066 46.8471 13.5947 46.9219 13.5004 47.0162C13.406 47.1105 13.3312 47.2225 13.2802 47.3458C13.2292 47.469 13.2029 47.6011 13.203 47.7345V54.8438H11.0275C10.7803 53.8864 10.1924 53.0521 9.37405 52.4971C8.55568 51.9422 7.56301 51.7047 6.5821 51.8293C5.6012 51.9539 4.6994 52.432 4.04576 53.1739C3.39211 53.9158 3.03149 54.8707 3.03149 55.8595C3.03149 56.8482 3.39211 57.8031 4.04576 58.545C4.6994 59.2869 5.6012 59.765 6.5821 59.8896C7.56301 60.0142 8.55568 59.7767 9.37405 59.2218C10.1924 58.6668 10.7803 57.8325 11.0275 56.8751H14.2186C14.352 56.8751 14.4841 56.8489 14.6073 56.7978C14.7305 56.7468 14.8425 56.672 14.9368 56.5777C15.0311 56.4834 15.1059 56.3714 15.157 56.2482C15.208 56.1249 15.2342 55.9928 15.2342 55.8595V48.7501H20.5402C21.0536 50.1609 21.3201 51.6495 21.328 53.1508V53.605C20.922 53.9653 20.6207 54.4283 20.4556 54.9454C20.2904 55.4624 20.2676 56.0144 20.3896 56.5432C20.5115 57.0721 20.7737 57.5584 21.1485 57.9509C21.5233 58.3435 21.997 58.6278 22.5197 58.774C22.4063 59.0793 22.3468 59.4019 22.3436 59.7275V60.1163C22.3445 60.8727 22.6454 61.5978 23.1802 62.1325C23.7151 62.6673 24.4402 62.968 25.1966 62.9688H39.8031C40.5594 62.968 41.2846 62.6673 41.8194 62.1325C42.3543 61.5978 42.6552 60.8727 42.6561 60.1164V59.7276C42.6529 59.4019 42.5933 59.0793 42.48 58.774C43.0027 58.6278 43.4763 58.3435 43.8512 57.9509C44.226 57.5584 44.4882 57.0721 44.6101 56.5432C44.732 56.0144 44.7093 55.4624 44.5441 54.9454C44.379 54.4283 44.0776 53.9653 43.6717 53.605V53.1508C43.7153 49.8348 44.9466 46.6444 47.1421 44.1589C47.2789 44.0002 47.4089 43.834 47.5427 43.6719H50.7811V53.8282C50.7811 53.9616 50.8073 54.0937 50.8583 54.2169C50.9094 54.3401 50.9842 54.4521 51.0785 54.5464C51.1728 54.6408 51.2848 54.7156 51.408 54.7666C51.5312 54.8176 51.6633 54.8439 51.7967 54.8438H54.9878C55.235 55.8012 55.8229 56.6356 56.6413 57.1905C57.4596 57.7455 58.4523 57.9829 59.4332 57.8583C60.4141 57.7337 61.3159 57.2557 61.9695 56.5138C62.6232 55.7718 62.9838 54.817 62.9838 53.8282C62.9838 52.8394 62.6232 51.8846 61.9695 51.1427C61.3159 50.4007 60.4141 49.9227 59.4332 49.7981C58.4523 49.6735 57.4596 49.9109 56.6413 50.4659C55.8229 51.0208 55.235 51.8552 54.9878 52.8126H52.8123V42.6563C52.8124 42.5229 52.7861 42.3909 52.7351 42.2676C52.6841 42.1444 52.6093 42.0324 52.5149 41.9381C52.4206 41.8438 52.3087 41.769 52.1854 41.7179C52.0622 41.6669 51.9301 41.6407 51.7967 41.6407H49.0831C51.6334 37.9734 53.4146 33.8276 54.3192 29.4532H57.8905V31.6287C56.9331 31.8759 56.0987 32.4638 55.5438 33.2821C54.9888 34.1005 54.7514 35.0932 54.876 36.0741C55.0006 37.055 55.4786 37.9568 56.2205 38.6104C56.9625 39.2641 57.9173 39.6247 58.9061 39.6247C59.8949 39.6247 60.8497 39.2641 61.5916 38.6104C62.3336 37.9568 62.8116 37.055 62.9362 36.0741C63.0608 35.0932 62.8234 34.1005 62.2684 33.2821C61.7135 32.4638 60.8791 31.8759 59.9217 31.6287V28.4376C59.9217 28.3042 59.8955 28.1721 59.8445 28.0489C59.7934 27.9256 59.7186 27.8137 59.6243 27.7193C59.53 27.625 59.418 27.5502 59.2948 27.4992C59.1716 27.4482 59.0395 27.4219 58.9061 27.422H54.6425C54.772 26.4114 54.8392 25.3939 54.8436 24.3751C54.8467 20.4509 53.8095 16.596 51.8376 13.2032H58.9061C59.0395 13.2032 59.1716 13.177 59.2948 13.126C59.418 13.0749 59.53 13.0001 59.6243 12.9058C59.7186 12.8115 59.7934 12.6995 59.8445 12.5763C59.8955 12.453 59.9217 12.321 59.9217 12.1876ZM6.09359 8.12508C5.69184 8.12508 5.29912 8.00595 4.96508 7.78275C4.63105 7.55956 4.3707 7.24232 4.21696 6.87116C4.06322 6.49999 4.02299 6.09158 4.10137 5.69755C4.17974 5.30353 4.3732 4.9416 4.65728 4.65752C4.94135 4.37344 5.30329 4.17999 5.69731 4.10161C6.09133 4.02323 6.49975 4.06346 6.87091 4.2172C7.24207 4.37094 7.55931 4.63129 7.78251 4.96533C8.00571 5.29937 8.12484 5.69209 8.12484 6.09383C8.12422 6.63236 7.91002 7.14866 7.52922 7.52946C7.14842 7.91026 6.63212 8.12446 6.09359 8.12508ZM4.06234 34.5313C4.06234 34.1296 4.18147 33.7369 4.40466 33.4028C4.62786 33.0688 4.9451 32.8084 5.31626 32.6547C5.68742 32.501 6.09584 32.4607 6.48986 32.5391C6.88389 32.6175 7.24582 32.8109 7.5299 33.095C7.81397 33.3791 8.00743 33.741 8.08581 34.1351C8.16418 34.5291 8.12396 34.9375 7.97022 35.3087C7.81648 35.6798 7.55613 35.9971 7.22209 36.2203C6.88805 36.4435 6.49533 36.5626 6.09359 36.5626C5.55505 36.562 5.03876 36.3478 4.65796 35.967C4.27716 35.5862 4.06295 35.0699 4.06234 34.5313ZM7.10921 57.8907C6.70747 57.8907 6.31475 57.7716 5.98071 57.5484C5.64667 57.3252 5.38632 57.0079 5.23258 56.6368C5.07884 56.2656 5.03861 55.8572 5.11699 55.4632C5.19537 55.0692 5.38883 54.7072 5.6729 54.4231C5.95698 54.1391 6.31891 53.9456 6.71293 53.8672C7.10696 53.7889 7.51538 53.8291 7.88654 53.9828C8.2577 54.1366 8.57494 54.3969 8.79813 54.731C9.02133 55.065 9.14046 55.4577 9.14046 55.8595C9.13985 56.398 8.92564 56.9143 8.54484 57.2951C8.16404 57.6759 7.64774 57.8901 7.10921 57.8907ZM58.9061 51.797C59.3078 51.797 59.7006 51.9161 60.0346 52.1393C60.3686 52.3625 60.629 52.6797 60.7827 53.0509C60.9365 53.422 60.9767 53.8305 60.8983 54.2245C60.8199 54.6185 60.6265 54.9804 60.3424 55.2645C60.0583 55.5486 59.6964 55.7421 59.3024 55.8204C58.9083 55.8988 58.4999 55.8586 58.1288 55.7048C57.7576 55.5511 57.4404 55.2907 57.2172 54.9567C56.994 54.6227 56.8748 54.2299 56.8748 53.8282C56.8755 53.2897 57.0897 52.7734 57.4705 52.3926C57.8513 52.0118 58.3676 51.7976 58.9061 51.797ZM60.9373 35.547C60.9373 35.9487 60.8182 36.3414 60.595 36.6755C60.3718 37.0095 60.0546 37.2698 59.6834 37.4236C59.3122 37.5773 58.9038 37.6176 58.5098 37.5392C58.1158 37.4608 57.7538 37.2673 57.4698 36.9833C57.1857 36.6992 56.9922 36.3373 56.9139 35.9432C56.8355 35.5492 56.8757 35.1408 57.0295 34.7696C57.1832 34.3985 57.4435 34.0812 57.7776 33.858C58.1116 33.6348 58.5043 33.5157 58.9061 33.5157C59.4446 33.5163 59.9609 33.7305 60.3417 34.1113C60.7225 34.4921 60.9367 35.0084 60.9373 35.547ZM40.6248 60.1164C40.6246 60.3342 40.538 60.543 40.3839 60.697C40.2298 60.851 40.0209 60.9375 39.8031 60.9376H25.1966C24.9787 60.9375 24.7698 60.851 24.6158 60.697C24.4617 60.543 24.375 60.3342 24.3748 60.1164V59.7276C24.375 59.5097 24.4617 59.3009 24.6158 59.1469C24.7698 58.9929 24.9787 58.9064 25.1966 58.9063H39.8031C40.0209 58.9064 40.2298 58.9929 40.3839 59.1469C40.538 59.3009 40.6246 59.5097 40.6248 59.7276V60.1164ZM41.6405 56.8751H23.3592C23.0899 56.8751 22.8315 56.7681 22.6411 56.5776C22.4506 56.3871 22.3436 56.1288 22.3436 55.8595C22.3436 55.5901 22.4506 55.3318 22.6411 55.1413C22.8315 54.9508 23.0899 54.8438 23.3592 54.8438H41.6405C41.9098 54.8438 42.1682 54.9508 42.3586 55.1413C42.5491 55.3318 42.6561 55.5901 42.6561 55.8595C42.6561 56.1288 42.5491 56.3871 42.3586 56.5776C42.1682 56.7681 41.9098 56.8751 41.6405 56.8751ZM52.8123 24.3751C52.5911 31.1707 50.0468 37.6851 45.6038 42.8319C43.1694 45.6007 41.7702 49.1279 41.6444 52.8126H23.3552C23.2295 49.1279 21.8303 45.6007 19.3959 42.8319C14.9529 37.6851 12.4086 31.1707 12.1873 24.3751C12.1873 18.9879 14.3274 13.8213 18.1367 10.012C21.9461 6.20264 27.1126 4.06258 32.4998 4.06258C37.887 4.06258 43.0536 6.20264 46.8629 10.012C50.6723 13.8213 52.8123 18.9879 52.8123 24.3751ZM56.8748 6.09383C56.8748 5.69209 56.994 5.29937 57.2172 4.96533C57.4404 4.63129 57.7576 4.37094 58.1288 4.2172C58.4999 4.06346 58.9083 4.02323 59.3024 4.10161C59.6964 4.17999 60.0583 4.37344 60.3424 4.65752C60.6265 4.9416 60.8199 5.30353 60.8983 5.69755C60.9767 6.09158 60.9365 6.49999 60.7827 6.87116C60.629 7.24232 60.3686 7.55956 60.0346 7.78275C59.7006 8.00595 59.3078 8.12508 58.9061 8.12508C58.3676 8.12446 57.8513 7.91026 57.4705 7.52946C57.0897 7.14866 56.8755 6.63236 56.8748 6.09383Z" fill="black"/>
<path d="M35.5469 46.7188H33.5156V48.75H35.5469V46.7188Z" fill="black"/>
<path d="M33.5156 44.6875H31.4844V46.7188H33.5156V44.6875Z" fill="black"/>
<path d="M31.4844 46.7188H29.4531V48.75H31.4844V46.7188Z" fill="black"/>
<path d="M37.5781 48.75H35.5469V50.7812H37.5781V48.75Z" fill="black"/>
<path d="M29.4531 48.75H27.4219V50.7812H29.4531V48.75Z" fill="black"/>
</svg>
