<svg width="65" height="65" viewBox="0 0 65 65" fill="none" xmlns="http://www.w3.org/2000/svg">
<g clip-path="url(#clip0_1_11054)">
<path d="M48.3438 12.8645C46.8542 12.4583 43.4688 11.3749 39.4063 10.0208L44.9584 2.302L35.8854 0.677002L24.1042 5.41658C19.9063 4.19784 16.3854 3.24992 14.7604 2.97909C4.19793 1.08325 0.812515 8.802 0.677099 8.93742L0.406265 9.47908L0.812515 10.1562C0.947932 10.2916 2.57293 14.3541 10.0208 15.7083C4.19793 20.9895 0.812515 28.4374 0.812515 36.427C0.812515 51.8645 13.4063 64.3228 28.7084 64.3228C44.0104 64.3228 56.6042 51.7291 56.6042 36.427C56.6042 31.9583 55.5209 27.4895 53.4896 23.5624L64.5938 8.26033L54.8438 6.49992L48.3438 12.8645ZM36.1563 3.52075L40.2188 4.19783L36.6979 9.20825C33.9896 8.39575 31.1459 7.44784 28.3021 6.63534L36.1563 3.52075ZM15.8438 16.7916L17.4688 19.6353L17.0625 19.4999C16.6563 19.3645 16.25 19.3645 15.8438 19.2291C15.1667 18.9583 14.625 18.552 14.0833 18.1458L12.7292 17.1978C13 16.927 13.4063 16.6562 13.6771 16.5208L15.8438 16.7916ZM29.3854 19.2291L31.1459 29.927L25.7292 28.9791L19.2292 17.4687L29.3854 19.2291ZM27.625 36.8333C27.8959 37.7812 28.3021 38.5937 28.7084 39.4062C29.25 40.4895 29.7917 41.302 29.6563 42.1145C29.5209 43.3333 27.8959 44.1457 27.2188 44.4166C26.8125 44.552 26.2709 44.8228 25.8646 44.9583C24.7813 45.3645 23.5625 45.7708 22.4792 46.5833C21.125 47.5312 20.3125 48.8853 19.5 50.2395C19.3646 50.3749 19.2292 50.6458 19.0938 50.7812C19.0938 50.7812 18.9583 50.7812 18.6875 50.9166C18.0104 51.052 17.1979 50.9166 16.25 50.9166C15.4375 50.9166 14.4896 50.7812 13.5417 50.9166C12.3229 50.9166 10.8333 51.7291 10.0208 52.8124C10.0208 52.9478 9.88543 52.9478 9.88543 53.0833C9.75002 52.9478 9.6146 52.8124 9.47918 52.677L13.4063 47.802C15.5729 45.0937 14.8958 43.3333 14.2188 42.5208C14.0833 42.3853 13.8125 42.1145 13.6771 41.9791C13.5417 41.9791 13.5417 41.8437 13.4063 41.8437C13.2708 41.7083 13.4063 40.8958 13.9479 40.0833C14.7604 38.9999 15.8438 37.2395 15.1667 35.4791C14.7604 34.3958 13.8125 33.7187 13 33.3124C12.5938 33.0416 12.3229 32.9062 12.0521 32.6353C11.2396 31.8228 11.5104 30.0624 11.9167 28.302C12.1875 27.0833 13.2708 23.427 10.8333 21.3958C10.6979 21.2603 10.4271 21.1249 10.2917 20.9895C10.0208 20.8541 9.6146 20.4478 9.6146 20.3124C9.6146 20.4478 9.75002 20.5833 9.6146 20.7187L9.34377 20.3124C9.75002 19.9062 10.1563 19.3645 10.5625 18.9583L12.3229 20.3124C13 20.8541 13.8125 21.3958 14.7604 21.802C15.3021 22.0728 15.8438 22.0728 16.3854 22.2083L18.9583 22.7499V22.6145L23.9688 31.4166L27.8959 32.0937C27.625 33.4478 27.2188 35.2083 27.625 36.8333ZM7.9896 22.2083C8.26043 22.4791 8.53127 22.7499 8.8021 22.8853C8.93752 23.0208 9.07293 23.0208 9.20835 23.1562C9.88543 23.8333 10.0208 25.1874 9.47918 27.3541C9.07293 28.9791 8.26043 32.2291 10.1563 34.2603C10.5625 34.6666 11.1042 35.0728 11.6458 35.3437C12.1875 35.6145 12.5938 35.8853 12.7292 36.1562C12.8646 36.6978 12.3229 37.6457 11.7813 38.3228C10.4271 40.2187 10.2917 42.1145 11.375 43.3333C11.5104 43.4687 11.7813 43.7395 11.9167 43.8749C12.0521 43.8749 12.0521 44.0103 12.1875 44.0103C12.3229 44.1458 12.1875 44.8228 11.375 45.9062L7.85418 50.2395C5.14585 46.177 3.65627 41.4374 3.65627 36.2916C3.52085 31.2812 5.14585 26.2708 7.9896 22.2083ZM11.9167 55.1145C11.9167 54.9791 11.9167 54.7083 12.1875 54.4374C12.5938 53.8958 13.4063 53.4895 14.0833 53.4895C14.7604 53.3541 15.4375 53.4895 16.25 53.4895C17.1979 53.6249 18.2813 53.6249 19.2292 53.4895C19.6354 53.4895 20.1771 53.3541 20.5833 52.9478C21.125 52.5416 21.5313 51.9999 21.8021 51.5937C22.4792 50.3749 23.1563 49.427 24.1042 48.7499C24.7813 48.2083 25.7292 47.9374 26.6771 47.5312C27.2188 47.3957 27.625 47.1249 28.1667 46.9895C30.4688 46.0416 31.8229 44.4166 32.2292 42.6562C32.5 40.8958 31.6875 39.5416 31.0104 38.1874C30.6042 37.5103 30.3334 36.8332 30.1979 36.2916C29.9271 35.2082 30.1979 33.8541 30.4688 32.6353L34.3959 33.3124L32.0938 19.7708L48.3438 22.7499C46.8542 23.0208 45.2292 23.5624 44.4167 25.1874C44.2813 25.3228 44.2813 25.5937 44.1459 25.7291C44.0104 25.8645 44.0104 26.1353 44.0104 26.1353C43.875 26.4062 43.4688 26.5416 42.9271 26.8124C42.6563 26.9478 42.3854 27.0833 42.1146 27.2187C41.3021 27.7603 40.625 28.5728 40.3542 29.5208C40.3542 29.7916 40.3542 29.927 40.3542 30.1978C40.0834 30.4687 39.6771 30.6041 39.2709 30.8749C38.8646 31.0103 38.4584 31.2812 38.0521 31.552C36.5625 32.4999 35.2084 34.2603 35.8854 36.1562C36.1563 36.9687 36.6979 37.5103 37.1042 37.9166C37.2396 38.1874 37.6459 38.4583 37.6459 38.5937C37.6459 38.7291 37.5104 38.9999 37.375 39.1353C37.2396 39.4062 36.9688 39.8124 36.8334 40.2187C36.0209 42.2499 37.2396 44.1457 37.9167 45.0937C38.4584 45.9062 39.2709 46.9895 40.3542 47.6666C40.625 47.802 40.8959 47.9374 41.1667 48.0728C41.3021 48.2083 41.5729 48.2083 41.7084 48.3437C42.5209 48.7499 42.9271 49.9687 43.3334 51.052L43.6042 51.5937C44.1459 53.0832 44.9584 54.302 46.0417 54.9791C41.5729 59.177 35.4792 61.8853 28.8438 61.8853C22.3438 61.6145 16.3854 59.177 11.9167 55.1145ZM47.9375 52.677C47.125 52.5416 46.4479 51.4582 46.0417 50.5103L45.9063 49.9687C45.3646 48.4791 44.6875 46.7187 43.0625 45.7707C42.7917 45.6353 42.5209 45.4999 42.25 45.3645C42.1146 45.2291 41.8438 45.2291 41.7084 45.0937C41.1667 44.8228 40.625 44.0103 40.2188 43.3333C39.6771 42.5208 39.1354 41.5728 39.4063 41.0312C39.4063 40.8957 39.5417 40.7603 39.6771 40.4895C39.9479 40.0833 40.4896 39.4062 40.4896 38.5937C40.4896 37.3749 39.6771 36.5624 39.1354 35.8853C38.8646 35.6145 38.5938 35.3437 38.4584 35.0728C38.3229 34.802 38.8646 34.1249 39.5417 33.7187C39.8125 33.5833 40.2188 33.3124 40.4896 33.177C41.3021 32.7708 42.25 32.3645 42.9271 31.552L43.6042 30.7395L43.0625 29.927C43.0625 29.7916 43.3334 29.6562 43.4688 29.5208C43.6042 29.3853 43.875 29.2499 44.0104 29.2499C44.6875 28.9791 45.5 28.5728 46.0417 27.6249C46.3125 27.3541 46.4479 26.9478 46.4479 26.677C46.4479 26.5416 46.5834 26.4062 46.5834 26.2708C47.125 25.3228 48.6146 24.9166 51.0521 25.1874C52.6771 28.5728 53.625 32.3645 53.625 36.1562C54.0313 42.6562 51.7292 48.3437 47.9375 52.677ZM60.2604 10.1562L52.4063 20.7187L10.4271 13.1353C3.79168 11.7812 5.41668 10.8333 4.19793 9.47908C4.7396 8.66658 5.5521 7.44784 7.1771 6.49992C7.85418 7.58325 9.20835 8.93742 11.375 9.6145L12.1875 7.04158C11.1042 6.63533 10.2917 6.09367 9.88543 5.552C11.1042 5.28117 12.5938 5.28117 14.3542 5.68742C20.0417 6.77075 47.9375 15.7083 48.2084 15.7083L48.8854 15.9791L55.6563 9.47908L60.2604 10.1562Z" fill="black"/>
</g>
<defs>
<clipPath id="clip0_1_11054">
<rect width="65" height="65" fill="white"/>
</clipPath>
</defs>
</svg>
