<svg width="65" height="65" viewBox="0 0 65 65" fill="none" xmlns="http://www.w3.org/2000/svg">
<path fill-rule="evenodd" clip-rule="evenodd" d="M58.229 56.875H6.77063C3.77928 56.875 1.35397 54.4497 1.35397 51.4583V13.5417C1.35397 10.5503 3.77928 8.125 6.77063 8.125H58.229C61.2203 8.125 63.6456 10.5503 63.6456 13.5417V51.4583C63.6456 54.4497 61.2203 56.875 58.229 56.875ZM16.2498 10.8333H6.77063C5.27563 10.8333 4.0623 12.0467 4.0623 13.5417V16.25H16.2498V10.8333ZM31.1456 10.8333H18.9581V16.25H31.1456V10.8333ZM46.0415 10.8333H33.854V16.25H46.0415V10.8333ZM60.9373 13.5417C60.9373 12.0467 59.724 10.8333 58.229 10.8333H48.7498V16.25H60.9373V13.5417ZM60.9373 18.9583H4.0623V46.0417H60.9373V18.9583ZM60.9373 48.75H48.7498V54.1667H46.0415V48.75H33.854V54.1667H31.1456V48.75H18.9581V54.1667H16.2498V48.75H4.0623V51.4583C4.0623 52.9533 5.27563 54.1667 6.77063 54.1667H58.229C59.724 54.1667 60.9373 52.9533 60.9373 51.4583V48.75ZM29.2782 40.3068C29.0453 40.495 28.7596 40.625 28.4373 40.625C27.6884 40.625 27.0831 40.0197 27.0831 39.2708V25.7292C27.0831 24.9817 27.6884 24.375 28.4373 24.375C28.7257 24.375 28.979 24.486 29.1997 24.6404L39.7229 31.2379C40.2456 31.4234 40.6248 31.9123 40.6248 32.5C40.6248 32.9401 40.4014 33.3139 40.0764 33.5603L29.2782 40.3068Z" fill="black"/>
</svg>
